<svg width="12" height="12" viewBox="0 0 12 12" fill="none" xmlns="http://www.w3.org/2000/svg">
<path d="M0.593703 8.59189C0.448561 8.42072 0.453628 8.26009 0.744094 8.42099C2.32127 9.33411 3.98135 9.63534 5.39253 9.75985C6.80379 9.88443 8.07004 9.64511 8.86909 9.43759C9.66752 9.2302 10.0621 9.07534 10.249 8.99228C10.4358 8.90925 10.4935 8.95534 10.5195 9.01767C10.5454 9.07988 10.5347 9.20983 10.4365 9.26181C10.4224 9.26923 10.3916 9.28739 10.3476 9.31356C10.0835 9.47053 9.32693 9.91948 8.62007 10.1329C8.53926 10.1573 8.46315 10.1809 8.39058 10.2032C7.72215 10.4079 7.3487 10.5226 6.29585 10.5694C5.12848 10.6213 4.00778 10.4597 2.83003 9.95126C1.65225 9.44276 0.73898 8.76311 0.593703 8.59189ZM10.458 8.15341C10.7972 8.12363 11.5184 8.0602 11.5 8.47274C11.4748 9.02504 11.2658 9.63676 10.8613 10.0294C10.8233 10.0639 10.7321 10.1326 10.6699 10.1329C10.592 10.1329 10.6075 10.0451 10.6386 9.97763C10.7342 9.77043 11.1517 8.84029 10.913 8.65927C10.7075 8.50404 10.083 8.57138 10.083 8.57138C10.0711 8.57273 9.62505 8.62389 9.51753 8.62899C9.40871 8.63408 9.40333 8.53497 9.48628 8.47274C9.70236 8.31067 10.0749 8.16122 10.3535 8.16122C10.3813 8.15949 10.417 8.15706 10.458 8.15341ZM4.86323 1.69638C6.07729 1.27094 7.38009 1.62397 7.80562 1.92489C8.02844 2.08251 8.57905 2.47753 8.57905 3.60653V5.97177C8.57905 6.49243 8.74049 6.71124 8.93062 6.96884C8.97159 7.02434 9.0133 7.08211 9.05562 7.14462C9.17247 7.31737 9.10439 7.39765 9.02144 7.49521C9.01237 7.50588 9.00331 7.51712 8.99409 7.52841C8.74157 7.74636 8.21088 8.20327 8.11128 8.28622C7.98699 8.38972 7.90921 8.36911 7.80562 8.28622C7.57732 8.12025 7.3074 7.86051 7.09468 7.52841C6.88584 7.77786 6.33185 8.22859 5.78706 8.31161C4.50861 8.50643 3.50344 8.18199 3.27046 6.99423C3.11791 6.21641 3.50437 5.24541 3.97652 4.87704C4.27236 4.64626 5.0055 4.20808 6.8564 4.12509L6.85054 3.71591C6.84807 3.57641 6.84566 3.4409 6.84566 3.35751C6.84566 3.13961 6.51363 2.75139 5.93257 2.78622C5.41373 2.81735 5.09152 3.17035 5.02925 3.51278C4.97994 3.73943 4.89361 3.73197 4.77827 3.72177L4.75972 3.71981C4.63439 3.70935 3.76397 3.6273 3.62886 3.60653C3.49396 3.58578 3.43798 3.42758 3.47359 3.26376C3.57735 2.78647 3.97621 2.00735 4.86323 1.69638ZM6.84566 5.08993C6.4202 5.08993 5.93536 5.15831 5.6728 5.27646C5.41036 5.39456 5.2915 5.47396 5.13667 5.75399C4.86897 6.23825 5.13564 7.28173 5.93257 7.14462C6.75599 7.0029 6.92866 6.08606 6.84566 5.08993Z" fill="#6B7C8C"/>
</svg>
