<svg preserveAspectRatio="none" width="100%" height="100%" overflow="visible" style="display: block;" viewBox="0 0 11 11" fill="none" xmlns="http://www.w3.org/2000/svg">
<path id="Vector" fill-rule="evenodd" clip-rule="evenodd" d="M3.66674 2.31314C4.16405 2.38416 4.5559 2.62202 4.84306 2.8537C6.85344 0.96995 8.10624 0.453429 9.73524 0.169705C10.1032 0.105617 10.4904 0.0534069 10.9098 0C10.8564 0.419438 10.8042 0.806595 10.7401 1.17455C10.4563 2.80346 9.93949 4.05599 8.05584 6.06642C8.28752 6.35359 8.52538 6.74546 8.59644 7.2428C8.71644 8.08313 8.34709 9.02736 7.2731 10.1014L6.86904 10.5055L6.46498 10.1014L5.25279 8.88919L4.84873 9.29324C4.62557 9.51644 4.26377 9.51644 4.04061 9.29324L1.61624 6.86891C1.39309 6.64575 1.39308 6.28394 1.61624 6.06079L2.02029 5.65675L0.808126 4.44458L0.404061 4.04052L0.808126 3.63645C1.88214 2.56243 2.82641 2.19313 3.66674 2.31314ZM3.50517 3.44452C3.69597 3.47176 3.86206 3.55187 4.01613 3.66091L2.82841 4.84862L2.03776 4.05796C2.74608 3.46995 3.22022 3.40382 3.50517 3.44452ZM6.0609 8.0811L7.24863 6.89338C7.35767 7.04746 7.43778 7.21356 7.46503 7.40437C7.50573 7.68932 7.4396 8.16345 6.85159 8.87179L6.0609 8.0811ZM9.53835 1.37135C9.05466 1.4744 8.62909 1.60719 8.19366 1.81009C8.12244 1.84324 8.05044 1.87857 7.97732 1.91633L8.99321 2.93221C9.03101 2.85909 9.06641 2.78704 9.09958 2.71585C9.30246 2.28046 9.43532 1.85501 9.53835 1.37135ZM8.36938 3.92463C7.95889 4.48489 7.39788 5.12788 6.61384 5.91193L4.44468 8.08109L2.82843 6.46485L4.9976 4.29568C5.78159 3.5116 6.4246 2.95054 6.98486 2.54008L8.36938 3.92463ZM2.42436 10.1014L3.23249 9.29333L1.61625 7.67705L0.808126 8.48522L2.42436 10.1014ZM0.808126 9.29333L1.61624 10.1014L0.808126 10.9096L0 10.1014L0.808126 9.29333Z" fill="var(--fill-0, #092540)"/>
</svg>
