<svg preserveAspectRatio="none" width="100%" height="100%" overflow="visible" style="display: block;" viewBox="0 0 12 9" fill="none" xmlns="http://www.w3.org/2000/svg">
<path id="Vector" d="M7.92773 4.5C8.68423 4.50014 9.60988 4.89279 10.3125 5.45312C11.1574 6.12708 11.5496 6.93992 10.8594 7.49512C10.3355 7.91614 8.24062 8.11867 6.5459 7.98242L7.20996 6.97852C7.86784 7.01544 8.57694 7.00497 9.16016 6.94824C9.63736 6.90178 10.0033 6.82257 10.1641 6.75293C10.0938 6.61232 9.92431 6.42348 9.68848 6.23535C9.14915 5.80525 8.43118 5.50016 7.92773 5.5C7.71526 5.50001 7.45944 5.55699 7.18555 5.66602L6.5459 4.86719C6.92995 4.71413 7.25765 4.50001 7.92773 4.5ZM3.26367 4C4.02024 4 4.94569 4.39269 5.64844 4.95312C6.4936 5.62721 6.88593 6.43985 6.19531 6.99512C5.34063 7.68189 1.15301 7.65517 0.332031 6.99512C-0.331893 6.46131 0.0707739 5.66373 0.900391 4.98047C1.60221 4.40259 2.50792 4.00004 3.26367 4ZM3.26367 5C2.77037 5.00005 2.07383 5.30921 1.53613 5.75195C1.30906 5.93894 1.14066 6.12789 1.06152 6.27246C1.77789 6.57202 4.85466 6.58432 5.50195 6.25684C5.43282 6.11577 5.26258 5.92529 5.02441 5.73535C4.48495 5.30513 3.76713 5 3.26367 5ZM8.25 0.5C9.21631 0.500219 10 1.28364 10 2.25C10 3.21636 9.21631 3.99978 8.25 4C7.28355 3.99995 6.5 3.21647 6.5 2.25C6.5 1.28353 7.28355 0.500053 8.25 0.5ZM3.27539 0C4.2417 0.000218881 5.02539 0.783637 5.02539 1.75C5.02539 2.71636 4.2417 3.49978 3.27539 3.5C2.30891 3.49997 1.52539 2.71648 1.52539 1.75C1.52539 0.783518 2.30891 2.65269e-05 3.27539 0ZM8.25 1.5C7.83583 1.50005 7.5 1.83582 7.5 2.25C7.5 2.66418 7.83583 2.99995 8.25 3C8.66403 2.99978 9 2.66408 9 2.25C9 1.83592 8.66403 1.50022 8.25 1.5ZM3.27539 1C2.8612 1.00003 2.52539 1.3358 2.52539 1.75C2.52539 2.1642 2.8612 2.49997 3.27539 2.5C3.68942 2.49978 4.02539 2.16408 4.02539 1.75C4.02539 1.33592 3.68942 1.00022 3.27539 1Z" fill="var(--fill-0, #092540)"/>
</svg>
