<svg preserveAspectRatio="none" width="100%" height="100%" overflow="visible" style="display: block;" viewBox="0 0 9 10" fill="none" xmlns="http://www.w3.org/2000/svg">
<path id="Vector" d="M9 7.25C9 7.44 8.895 7.605 8.735 7.69L4.785 9.91C4.705 9.97 4.605 10 4.5 10C4.395 10 4.295 9.97 4.215 9.91L0.265 7.69C0.105 7.605 0 7.44 0 7.25V2.75C0 2.56 0.105 2.395 0.265 2.31L4.215 0.09C4.295 0.03 4.395 0 4.5 0C4.605 0 4.705 0.03 4.785 0.09L8.735 2.31C8.895 2.395 9 2.56 9 2.75V7.25ZM4.5 1.075L3.555 1.61L6.5 3.305L7.48 2.75L4.5 1.075ZM1.52 2.75L4.5 4.425L5.48 3.875L2.54 2.175L1.52 2.75ZM1 6.955L4 8.645V5.29L1 3.605V6.955ZM8 6.955V3.605L5 5.29V8.645L8 6.955Z" fill="var(--fill-0, #092540)"/>
</svg>
