<svg width="16" height="16" viewBox="0 0 16 16" fill="none" xmlns="http://www.w3.org/2000/svg">
<path d="M8.33301 3.66699H14.0576C14.7588 3.66699 15.3329 4.24027 15.333 4.94141V12.3916C15.333 13.0929 14.7589 13.667 14.0576 13.667L2.6084 13.6162C1.90722 13.6162 1.33313 13.0429 1.33301 12.3418L1.33984 3.94141C1.33998 3.24027 1.90724 2.66699 2.6084 2.66699H6.33301L8.33301 3.66699ZM3.0332 5.16699C2.92296 5.16706 2.83325 5.25601 2.83301 5.36621V11.9668C2.83308 12.0772 2.92285 12.1669 3.0332 12.167H13.6338C13.744 12.1667 13.8329 12.077 13.833 11.9668V5.36621C13.8328 5.25612 13.7439 5.16724 13.6338 5.16699H3.0332Z" fill="#6B7C8C"/>
</svg>
