<svg width="12" height="12" viewBox="0 0 12 12" fill="none" xmlns="http://www.w3.org/2000/svg">
<path d="M1.30466 12L0 3.96825H12L10.6953 12H1.30466ZM2.14582 10.969H9.85418L10.7844 4.99923H1.21559L2.14582 10.969ZM4.56335 7.76277H7.43665C7.57589 7.76277 7.69477 7.71284 7.7933 7.61298C7.89171 7.51313 7.94092 7.39172 7.94092 7.24875C7.94092 7.10578 7.89171 6.98388 7.7933 6.88304C7.69477 6.7822 7.57589 6.73178 7.43665 6.73178H4.56335C4.42411 6.73178 4.30583 6.78226 4.20849 6.88323C4.11128 6.98419 4.06267 7.10615 4.06267 7.24912C4.06267 7.39208 4.11128 7.51343 4.20849 7.61317C4.30583 7.7129 4.42411 7.76277 4.56335 7.76277ZM1.69004 3.01502C1.55081 3.01502 1.43252 2.96515 1.33519 2.86542C1.23798 2.76556 1.18937 2.64415 1.18937 2.50118C1.18937 2.35822 1.23798 2.23631 1.33519 2.13548C1.43252 2.03451 1.55081 1.98403 1.69004 1.98403H10.31C10.4492 1.98403 10.5681 2.03458 10.6666 2.13566C10.765 2.23662 10.8142 2.35858 10.8142 2.50155C10.8142 2.64452 10.765 2.76587 10.6666 2.8656C10.5681 2.96521 10.4492 3.01502 10.31 3.01502H1.69004ZM3.1267 1.03098C2.98746 1.03098 2.86917 0.981055 2.77184 0.881199C2.67463 0.781466 2.62602 0.660116 2.62602 0.517149C2.62602 0.374183 2.67463 0.252219 2.77184 0.151258C2.86917 0.0504195 2.98746 0 3.1267 0H8.87331C9.01254 0 9.13142 0.0505427 9.22995 0.151627C9.32836 0.252588 9.37757 0.374551 9.37757 0.517518C9.37757 0.660485 9.32836 0.781835 9.22995 0.881568C9.13142 0.981178 9.01254 1.03098 8.87331 1.03098H3.1267Z" fill="#195AFE"/>
</svg>
