<svg preserveAspectRatio="none" width="100%" height="100%" overflow="visible" style="display: block;" viewBox="0 0 10 10" fill="none" xmlns="http://www.w3.org/2000/svg">
<path id="Vector" d="M4.74421 0.156325C4.94545 -0.0491065 5.27473 -0.0524299 5.48054 0.148513C5.48332 0.15123 5.48661 0.153547 5.48933 0.156325L9.85163 4.61922C10.0525 4.82476 10.049 5.1543 9.84382 5.35554L9.79597 5.40242C9.59051 5.60395 9.26034 5.60085 9.05866 5.39558C9.0552 5.39205 9.05129 5.38847 9.04792 5.38484L8.96394 5.29402V9.00203C8.96394 9.28983 8.73038 9.52351 8.44245 9.52351H6.2657C5.97777 9.52351 5.74421 9.28983 5.74421 9.00203V7.43953H4.36433V9.00203C4.36433 9.28983 4.13077 9.52351 3.84284 9.52351H1.66511C1.37736 9.5233 1.1446 9.2897 1.1446 9.00203V5.28621L0.872141 5.57039C0.678796 5.77186 0.357926 5.77827 0.156321 5.58504C-0.0482116 5.38558 -0.0519472 5.06287 0.144602 4.8614L4.3321 0.577224L4.74421 0.156325ZM2.06452 4.32722V8.48152H3.44441V6.91804C3.44442 6.63026 3.67797 6.39656 3.96589 6.39656H6.14265C6.43057 6.39656 6.66412 6.63026 6.66413 6.91804V8.48152H8.04402V4.31258H8.05378L5.11628 1.14558L2.06452 4.32722Z" fill="var(--fill-0, #195AFE)"/>
</svg>
