<svg preserveAspectRatio="none" width="100%" height="100%" overflow="visible" style="display: block;" viewBox="0 0 15 15" fill="none" xmlns="http://www.w3.org/2000/svg">
<g id="IconShape">
<path fill-rule="evenodd" clip-rule="evenodd" d="M2.68253 3.37072V0H13.3492V3.37072H14.6825V11.4604H9.3492V10.1122H13.3492V4.71901H2.68253V6.05982H1.34919V3.37072H2.68253ZM4.01586 3.37072V1.34829H12.0159V3.37072H4.01586Z" fill="var(--fill-0, #3A5166)"/>
<path fill-rule="evenodd" clip-rule="evenodd" d="M3.35932 12.2449L0.942809 14.6614L0 13.7186L2.40891 11.3097C1.5374 10.011 1.68459 8.22573 2.84429 7.06604C4.16064 5.74969 6.28302 5.73785 7.58477 7.0396C8.88652 8.34135 8.87468 10.4637 7.55833 11.7801C6.41186 12.9266 4.65395 13.0835 3.35932 12.2449ZM3.77124 10.8531C4.55229 11.6342 5.82572 11.6271 6.61552 10.8373C7.40533 10.0475 7.41243 8.77403 6.63139 7.99298C5.85034 7.21194 4.57691 7.21904 3.7871 8.00885C2.99729 8.79865 2.99019 10.0721 3.77124 10.8531Z" fill="var(--fill-0, #3A5166)"/>
</g>
</svg>
