<svg width="16" height="16" viewBox="0 0 16 16" fill="none" xmlns="http://www.w3.org/2000/svg">
<path d="M14 2H2V3.33333H14V2Z" fill="#6B7C8C"/>
<path d="M10 4.66667H14V6H10V4.66667Z" fill="#6B7C8C"/>
<path fill-rule="evenodd" clip-rule="evenodd" d="M4.30964 6.35701C3.08771 7.57895 3.01279 9.51355 4.0849 10.8229L2.06904 13.0706L3.06166 13.9608L5.11872 11.6671C6.37627 12.3268 7.96664 12.1281 9.02369 11.0711C10.3254 9.76931 10.3254 7.65876 9.02369 6.35701C7.72194 5.05526 5.61139 5.05526 4.30964 6.35701ZM8.08088 10.1282C7.29983 10.9093 6.0335 10.9093 5.25245 10.1282C4.4714 9.3472 4.4714 8.08087 5.25245 7.29982C6.0335 6.51877 7.29983 6.51877 8.08088 7.29982C8.86193 8.08087 8.86193 9.3472 8.08088 10.1282Z" fill="#6B7C8C"/>
<path d="M11.3333 10H14V11.3333H11.3333V10Z" fill="#6B7C8C"/>
<path d="M14 7.33333H12V8.66667H14V7.33333Z" fill="#6B7C8C"/>
<path d="M14 12.6667H9.33333V14H14V12.6667Z" fill="#6B7C8C"/>
</svg>
