<svg preserveAspectRatio="none" width="100%" height="100%" overflow="visible" style="display: block;" viewBox="0 0 15 12" fill="none" xmlns="http://www.w3.org/2000/svg">
<path id="IconShape" d="M14.667 4L12 5.4541V9.09375C12 9.31668 11.8738 9.52341 11.6689 9.63574L7.66699 11.915C7.45955 12.0288 7.20262 12.0287 6.99512 11.915L2.99707 9.63574C2.79235 9.5234 2.66699 9.31662 2.66699 9.09375V5.4541L1.33301 4.72656V8.66699C1.33284 9.03493 1.03493 9.33283 0.666992 9.33301C0.298908 9.33301 0.000170395 9.03504 0 8.66699V4L7.33301 0L14.667 4ZM7.33301 8L4 6.18066V8.66699L7.33301 10.667L10.667 8.66699V6.18066L7.33301 8ZM2.66699 4L7.33301 6.66699L12 4L7.33301 1.33301L2.66699 4Z" fill="var(--fill-0, #195AFE)"/>
</svg>
