<svg width="32" height="32" viewBox="0 0 32 32" fill="none" xmlns="http://www.w3.org/2000/svg">
<path d="M17.3333 10.6666V13.9C17.3333 14.6306 17.58 15.4806 18 16.0286H14C14.4333 15.4675 14.6667 14.6176 14.6667 13.9V10.6666H17.3333ZM19.3333 9.33331H12.6667C12.3 9.33331 12 9.62688 12 9.98569C12 10.3445 12.3 10.6666 12.6667 10.6666H13.3333V13.9C13.3333 14.9829 12.44 16.0286 11.3333 16.0286V17.3333H15.3133V21.7285L15.98 22.3809L16.6467 21.7285V17.3333H20.6667V16.0286C19.56 16.0286 18.6667 14.9829 18.6667 13.9V10.6666H19.3333C19.7 10.6666 20 10.3445 20 9.98569C20 9.62688 19.7 9.33331 19.3333 9.33331Z" fill="#195AFE"/>
</svg>
