<svg width="16" height="16" viewBox="0 0 16 16" fill="none" xmlns="http://www.w3.org/2000/svg">
<path d="M14 10.9999C14 11.2533 13.86 11.4733 13.6467 11.5866L8.38 14.5466C8.27333 14.6266 8.14 14.6666 8 14.6666C7.86 14.6666 7.72667 14.6266 7.62 14.5466L2.35333 11.5866C2.14 11.4733 2 11.2533 2 10.9999V4.99992C2 4.74659 2.14 4.52659 2.35333 4.41325L7.62 1.45325C7.72667 1.37325 7.86 1.33325 8 1.33325C8.14 1.33325 8.27333 1.37325 8.38 1.45325L13.6467 4.41325C13.86 4.52659 14 4.74659 14 4.99992V10.9999ZM8 2.76659L6.74 3.47992L10.6667 5.73992L11.9733 4.99992L8 2.76659ZM4.02667 4.99992L8 7.23325L9.30667 6.49992L5.38667 4.23325L4.02667 4.99992ZM3.33333 10.6066L7.33333 12.8599V8.38659L3.33333 6.13992V10.6066ZM12.6667 10.6066V6.13992L8.66667 8.38659V12.8599L12.6667 10.6066Z" fill="#6B7C8C"/>
</svg>
