<svg width="12" height="12" viewBox="0 0 12 12" fill="none" xmlns="http://www.w3.org/2000/svg">
<path d="M10.5 8.25C10.5 8.44 10.395 8.605 10.235 8.69L6.285 10.91C6.205 10.97 6.105 11 6 11C5.895 11 5.795 10.97 5.715 10.91L1.765 8.69C1.605 8.605 1.5 8.44 1.5 8.25V3.75C1.5 3.56 1.605 3.395 1.765 3.31L5.715 1.09C5.795 1.03 5.895 1 6 1C6.105 1 6.205 1.03 6.285 1.09L10.235 3.31C10.395 3.395 10.5 3.56 10.5 3.75V8.25ZM6 2.075L5.055 2.61L8 4.305L8.98 3.75L6 2.075ZM3.02 3.75L6 5.425L6.98 4.875L4.04 3.175L3.02 3.75ZM2.5 7.955L5.5 9.645V6.29L2.5 4.605V7.955ZM9.5 7.955V4.605L6.5 6.29V9.645L9.5 7.955Z" fill="#6B7C8C"/>
</svg>
