<svg preserveAspectRatio="none" width="100%" height="100%" overflow="visible" style="display: block;" viewBox="0 0 10 10" fill="none" xmlns="http://www.w3.org/2000/svg">
<path id="Vector" d="M3 2.31934C1.78561 2.90355 1 4.1001 1 5.5C1 7.4194 2.58073 9 4.5 9C5.89997 9 7.09647 8.21435 7.68066 7H8.74414C8.12651 8.74779 6.45976 10 4.5 10C2.01472 10 0 7.98583 0 5.5C0 3.54059 1.25197 1.87355 3 1.25586V2.31934ZM4.5 0C7.53757 0 10 2.46861 10 5.5C10 5.66854 9.99241 5.83532 9.97754 6H4V0.0224609C4.16471 0.00756629 4.33149 0 4.5 0ZM5 5H8.97168C8.74056 2.9172 7.08384 1.25948 5 1.02832V5Z" fill="var(--fill-0, #092540)"/>
</svg>
