<svg preserveAspectRatio="none" width="100%" height="100%" overflow="visible" style="display: block;" viewBox="0 0 9 9" fill="none" xmlns="http://www.w3.org/2000/svg">
<path id="Vector" d="M5.44137 5.75198C4.81479 6.29978 4.00346 6.58903 3.17164 6.56117C2.33982 6.53331 1.54967 6.19041 0.961152 5.6019C0.372633 5.01339 0.0297223 4.22325 0.00184324 3.39143C-0.0260358 2.55961 0.2632 1.74828 0.810994 1.12169C1.35879 0.495093 2.12421 0.10006 2.95229 0.0165635C3.78038 -0.0669332 4.60925 0.167345 5.27111 0.671967C5.93297 1.17659 6.37835 1.91385 6.51709 2.73449C6.65583 3.55513 6.47756 4.39783 6.01837 5.09198L8.53987 7.61348L7.92087 8.23198L5.44087 5.75198H5.44137ZM4.89387 4.89548C5.32352 4.46941 5.56632 3.89011 5.56885 3.28502C5.57138 2.67994 5.33344 2.09863 4.90737 1.66898C4.6964 1.45623 4.4456 1.28713 4.16927 1.17132C3.89295 1.0555 3.59652 0.99525 3.29692 0.993996C2.69183 0.991464 2.11052 1.22941 1.68087 1.65548C1.25122 2.08155 1.00842 2.66084 1.00589 3.26593C1.00336 3.87102 1.2413 4.45233 1.66737 4.88198C2.09344 5.31163 2.67274 5.55442 3.27782 5.55696C3.88291 5.55949 4.46422 5.32155 4.89387 4.89548Z" fill="var(--fill-0, #092540)"/>
</svg>
