<svg preserveAspectRatio="none" width="100%" height="100%" overflow="visible" style="display: block;" viewBox="0 0 10 10" fill="none" xmlns="http://www.w3.org/2000/svg">
<path id="Vector" d="M4.31152 0.0480103C4.77491 -0.0157839 5.22591 -0.0162225 5.69141 0.0480103C6.08807 0.103227 6.39847 0.416885 6.45117 0.814612L6.51953 1.33414L6.93359 1.01578C7.2517 0.770782 7.69504 0.768779 8.01465 1.0109C8.38294 1.2895 8.71084 1.61827 8.99023 1.98746C9.23158 2.30714 9.23026 2.74926 8.98633 3.06656L8.66699 3.4816L9.18555 3.54899C9.58352 3.60164 9.89684 3.91292 9.95215 4.31071C9.98401 4.54251 10 4.77437 10 5.00016C9.99999 5.226 9.98415 5.45803 9.95215 5.69059C9.89683 6.08757 9.58266 6.39867 9.18555 6.45035L8.66699 6.51871L8.98633 6.93375C9.23002 7.25146 9.23181 7.69275 8.99023 8.01285C8.71123 8.38159 8.38265 8.71006 8.01465 8.98844C7.69497 9.23061 7.25295 9.22886 6.93457 8.98453L6.51953 8.66617L6.45117 9.18571C6.39864 9.58272 6.08777 9.8961 5.69043 9.95133C5.45768 9.98346 5.22526 10.0002 4.99902 10.0002C4.77364 10.0001 4.54262 9.98406 4.3125 9.95231C3.91465 9.8979 3.60153 9.58343 3.5498 9.18571L3.48242 8.66617L3.06445 8.98649C2.74671 9.22964 2.30605 9.2316 1.98633 8.99039C1.81818 8.86332 1.65506 8.72315 1.49609 8.56754L1.42773 8.49821C1.27803 8.34567 1.13789 8.18381 1.01074 8.01578C0.768482 7.69608 0.770193 7.25319 1.01465 6.93473L1.33398 6.51871L0.8125 6.45035C0.41533 6.39794 0.102271 6.08685 0.046875 5.68961C0.0189167 5.48715 0.00315594 5.27984 0 5.06266V4.92985C0.0030708 4.72065 0.0188302 4.51261 0.046875 4.30973C0.10228 3.91273 0.416376 3.60148 0.813477 3.54996L1.33398 3.4816L1.01367 3.06461C0.76983 2.74686 0.768345 2.30546 1.00977 1.98551C1.13669 1.81775 1.27714 1.65581 1.43066 1.49918L1.50098 1.42789C1.65443 1.27772 1.81711 1.13778 1.9873 1.00895C2.30682 0.76846 2.74683 0.770228 3.06543 1.01383L3.48242 1.33414L3.5498 0.815588C3.60146 0.417556 3.9135 0.103425 4.31152 0.0480103ZM5.4707 1.02848C5.15366 0.990992 4.8465 0.99038 4.53125 1.0275L4.38867 2.11539L4.08887 2.21305C3.9467 2.25944 3.8082 2.31625 3.6748 2.38395L3.39355 2.5275L3.14355 2.33512L2.52344 1.85856C2.41203 1.94664 2.30451 2.04061 2.20508 2.13785L2.1416 2.20231C2.04076 2.30521 1.94565 2.41232 1.8584 2.52262L2.52734 3.39274L2.38379 3.67399C2.31583 3.8077 2.2585 3.9467 2.21191 4.08903L2.11426 4.38785L1.80176 4.42887L1.02637 4.53043C1.01062 4.66559 1.00202 4.80291 1 4.93668V5.05485C1.00208 5.19547 1.0106 5.33448 1.02637 5.46989L2.11426 5.61149L2.21191 5.91129C2.25853 6.05378 2.31578 6.19263 2.38379 6.32633L2.52734 6.60758L2.33496 6.85758L1.8584 7.4777C1.946 7.58848 2.04081 7.69535 2.13867 7.79508L2.2002 7.8566C2.30424 7.95842 2.41262 8.0542 2.52344 8.14176L3.39355 7.47281L3.6748 7.61539C3.80847 7.68328 3.94677 7.74087 4.08887 7.78727L4.38867 7.88492L4.42969 8.19742L4.53125 8.97184C4.68933 8.99048 4.8464 9.00015 4.99902 9.00016C5.15253 9.00016 5.31111 8.99071 5.4707 8.97184L5.61328 7.88395L5.91309 7.78629C6.05452 7.74001 6.19199 7.68213 6.3252 7.61442L6.60645 7.47184L6.85645 7.66422L7.47656 8.14078C7.72322 7.94604 7.94677 7.72249 8.1416 7.47574L7.47266 6.60563L7.61523 6.32438C7.68267 6.19162 7.73983 6.05378 7.78613 5.91227L7.88477 5.61246L8.19727 5.57145L8.97168 5.46989C8.99038 5.31089 9 5.15321 9 5.00016C9 4.84681 8.99037 4.68832 8.97168 4.52946L7.88477 4.38785L7.78613 4.08805C7.73981 3.94651 7.68272 3.80887 7.61523 3.67594L7.47266 3.39469L7.66504 3.14469L8.1416 2.52457C7.94659 2.27766 7.72326 2.05434 7.47656 1.85953L6.60645 2.52848L6.3252 2.38492C6.19202 2.31724 6.0537 2.26041 5.91211 2.21403L5.61328 2.11539L5.57227 1.80387L5.4707 1.02848ZM5 3.10758C6.04408 3.10758 6.89258 3.95603 6.89258 5.00016C6.89257 6.04428 6.04407 6.89274 5 6.89274C3.95582 6.89274 3.10743 6.04432 3.10742 5.00016C3.10742 3.95599 3.95582 3.10758 5 3.10758ZM5 4.10758C4.50811 4.10758 4.10742 4.50827 4.10742 5.00016C4.10743 5.49204 4.50811 5.89274 5 5.89274C5.4918 5.89274 5.89257 5.49198 5.89258 5.00016C5.89258 4.50833 5.49181 4.10758 5 4.10758Z" fill="var(--fill-0, #092540)"/>
</svg>
