<svg preserveAspectRatio="none" width="100%" height="100%" overflow="visible" style="display: block;" viewBox="0 0 30 30" fill="none" xmlns="http://www.w3.org/2000/svg">
<g id="Group 1885">
<circle id="Ellipse 1661" cx="15" cy="15" r="15" fill="var(--fill-0, #C343FF)"/>
<g id="Mask Group">
<mask id="mask0_97_18316" style="mask-type:alpha" maskUnits="userSpaceOnUse" x="0" y="0" width="30" height="30">
<circle id="Ellipse 1662" cx="15" cy="15" r="15" fill="var(--fill-0, #C343FF)"/>
</mask>
<g mask="url(#mask0_97_18316)">
<g id="Group 70">
<path id="Vector" d="M24.0864 33.926H-1.99902C-2.27641 33.926 -2.5 33.7301 -2.5 33.4894L-1.86153 9.40515H23.9501L24.5885 33.4894C24.5873 33.7311 24.3637 33.926 24.0864 33.926Z" fill="url(#paint0_linear_97_18316)"/>
<path id="Vector_2" d="M16.2395 13.3141C16.7518 13.3141 17.1671 12.9163 17.1671 12.4257C17.1671 11.935 16.7518 11.5372 16.2395 11.5372C15.7271 11.5372 15.3118 11.935 15.3118 12.4257C15.3118 12.9163 15.7271 13.3141 16.2395 13.3141Z" fill="var(--fill-0, #C343FF)"/>
<path id="Vector_3" d="M5.84908 13.3141C6.36143 13.3141 6.77677 12.9163 6.77677 12.4257C6.77677 11.935 6.36143 11.5372 5.84908 11.5372C5.33673 11.5372 4.92139 11.935 4.92139 12.4257C4.92139 12.9163 5.33673 13.3141 5.84908 13.3141Z" fill="var(--fill-0, #C343FF)"/>
<path id="Vector_4" d="M11.0172 23.3231C7.88724 23.3231 5.34131 20.5902 5.34131 17.2302V13.1162C5.34131 12.886 5.53598 12.6996 5.77633 12.6996C6.01667 12.6996 6.21134 12.886 6.21134 13.1162V17.2302C6.21134 20.1309 8.36685 22.4899 11.0172 22.4899C13.6664 22.4899 15.823 20.1309 15.823 17.2302V13.1162C15.823 12.886 16.0177 12.6996 16.2581 12.6996C16.4984 12.6996 16.6931 12.886 16.6931 13.1162V17.2302C16.6931 20.5902 14.1471 23.3231 11.0172 23.3231Z" fill="url(#paint1_linear_97_18316)"/>
<path id="Vector 2" d="M21.1073 7.27278L23.9621 9.40503H-1.86242L0.980836 7.27278H21.1073Z" fill="url(#paint2_linear_97_18316)"/>
</g>
</g>
</g>
</g>
<defs>
<linearGradient id="paint0_linear_97_18316" x1="20.6922" y1="9.76052" x2="11.519" y2="38.6841" gradientUnits="userSpaceOnUse">
<stop stop-color="white"/>
<stop offset="1" stop-color="white" stop-opacity="0.16"/>
</linearGradient>
<linearGradient id="paint1_linear_97_18316" x1="11.2296" y1="13.1365" x2="11.3998" y2="25.5749" gradientUnits="userSpaceOnUse">
<stop stop-color="white"/>
<stop offset="0.65625" stop-color="white"/>
</linearGradient>
<linearGradient id="paint2_linear_97_18316" x1="-5.55242" y1="3.9843" x2="20.8966" y2="17.1677" gradientUnits="userSpaceOnUse">
<stop stop-color="white"/>
<stop offset="1" stop-color="white" stop-opacity="0.15"/>
</linearGradient>
</defs>
</svg>
