<svg width="224" height="32" viewBox="0 0 224 32" fill="none" xmlns="http://www.w3.org/2000/svg">
<circle cx="31" cy="15" r="15" fill="#C343FF"/>
<mask id="mask0_87_205" style="mask-type:alpha" maskUnits="userSpaceOnUse" x="16" y="0" width="30" height="30">
<circle cx="31" cy="15" r="15" fill="#C343FF"/>
</mask>
<g mask="url(#mask0_87_205)">
<path d="M40.0864 33.926H14.001C13.7236 33.926 13.5 33.7301 13.5 33.4894L14.1385 9.40515H39.9501L40.5885 33.4894C40.5873 33.7312 40.3637 33.926 40.0864 33.926Z" fill="url(#paint0_linear_87_205)"/>
<path d="M32.2395 13.3141C32.7518 13.3141 33.1671 12.9163 33.1671 12.4257C33.1671 11.935 32.7518 11.5372 32.2395 11.5372C31.7271 11.5372 31.3118 11.935 31.3118 12.4257C31.3118 12.9163 31.7271 13.3141 32.2395 13.3141Z" fill="#C343FF"/>
<path d="M21.8491 13.3141C22.3614 13.3141 22.7768 12.9163 22.7768 12.4257C22.7768 11.935 22.3614 11.5372 21.8491 11.5372C21.3367 11.5372 20.9214 11.935 20.9214 12.4257C20.9214 12.9163 21.3367 13.3141 21.8491 13.3141Z" fill="#C343FF"/>
<path d="M27.0172 23.3231C23.8872 23.3231 21.3413 20.5902 21.3413 17.2302V13.1162C21.3413 12.886 21.536 12.6996 21.7763 12.6996C22.0167 12.6996 22.2113 12.886 22.2113 13.1162V17.2302C22.2113 20.1309 24.3668 22.4899 27.0172 22.4899C29.6664 22.4899 31.823 20.1309 31.823 17.2302V13.1162C31.823 12.886 32.0177 12.6996 32.2581 12.6996C32.4984 12.6996 32.6931 12.886 32.6931 13.1162V17.2302C32.6931 20.5902 30.1471 23.3231 27.0172 23.3231Z" fill="url(#paint1_linear_87_205)"/>
<path d="M37.1073 7.27278L39.9621 9.40503H14.1376L16.9808 7.27278H37.1073Z" fill="url(#paint2_linear_87_205)"/>
</g>
<g filter="url(#filter0_d_87_205)">
<circle cx="42.5" cy="24.5" r="5.5" fill="white"/>
</g>
<path d="M45.6562 22.5686C45.2515 21.9499 44.6639 21.4284 43.9907 21.1677L43.7922 21.1015C43.5431 21.0276 43.3174 20.9964 43.1112 21.0003C42.3835 21.0042 41.7919 21.5957 41.7919 22.3234C41.7919 22.627 41.8931 22.9072 42.0643 23.129L41.9826 23.0278C42.1928 23.3313 42.5313 23.6388 43.0061 24.0007C43.9517 24.7206 44.5666 25.3588 44.6172 26.1488C44.6289 26.2539 44.6366 26.3628 44.6366 26.4757C44.6366 26.8765 44.5471 27.3046 44.3954 27.6042C44.3954 27.6042 44.3331 27.7132 44.372 27.756C44.3876 27.7716 44.4382 27.7871 44.516 27.7404C44.9363 27.4719 45.3021 27.1217 45.5901 26.7092C46.0103 26.106 46.2399 25.39 46.2477 24.6545C46.2672 23.9073 46.057 23.1874 45.6562 22.5686Z" fill="#FF8126"/>
<path d="M42.858 25.2732L42.2626 24.7945C41.0173 23.9034 40.3713 22.946 40.7255 21.763C40.7566 21.6541 40.7955 21.549 40.8422 21.4478C40.8422 21.4478 40.9317 21.2649 40.7371 21.3544C40.3285 21.5723 39.9549 21.8681 39.6475 22.23C39.1144 22.8488 38.7992 23.631 38.7564 24.4482C38.7135 25.2654 38.9393 26.0748 39.4062 26.7481C39.5969 27.0088 39.8265 27.2345 40.0873 27.4213C41.3987 28.3669 42.5233 27.8688 42.5233 27.8688C43.072 27.647 43.4612 27.1061 43.4612 26.4757C43.4573 25.9814 43.2238 25.5456 42.858 25.2732Z" fill="#092540"/>
<path d="M60.912 13.692C60.0907 13.692 59.3653 13.5533 58.736 13.276C58.1067 12.988 57.6107 12.5827 57.248 12.06C56.8853 11.5267 56.6987 10.8813 56.688 10.124H58.848C58.8693 10.6467 59.056 11.0893 59.408 11.452C59.7707 11.804 60.2667 11.98 60.896 11.98C61.44 11.98 61.872 11.852 62.192 11.596C62.512 11.3293 62.672 10.9773 62.672 10.54C62.672 10.0813 62.528 9.724 62.24 9.468C61.9627 9.212 61.5893 9.004 61.12 8.844C60.6507 8.684 60.1493 8.51333 59.616 8.332C58.752 8.03333 58.0907 7.64933 57.632 7.18C57.184 6.71067 56.96 6.08667 56.96 5.308C56.9493 4.64667 57.104 4.08133 57.424 3.612C57.7547 3.132 58.2027 2.764 58.768 2.508C59.3333 2.24133 59.984 2.108 60.72 2.108C61.4667 2.108 62.1227 2.24133 62.688 2.508C63.264 2.77467 63.712 3.148 64.032 3.628C64.3627 4.108 64.5387 4.67867 64.56 5.34H62.368C62.3573 4.94533 62.2027 4.59867 61.904 4.3C61.616 3.99067 61.2107 3.836 60.688 3.836C60.24 3.82533 59.8613 3.93733 59.552 4.172C59.2533 4.396 59.104 4.72667 59.104 5.164C59.104 5.53733 59.2213 5.836 59.456 6.06C59.6907 6.27333 60.0107 6.45467 60.416 6.604C60.8213 6.75333 61.2853 6.91333 61.808 7.084C62.3627 7.276 62.8693 7.5 63.328 7.756C63.7867 8.012 64.1547 8.35333 64.432 8.78C64.7093 9.196 64.848 9.73467 64.848 10.396C64.848 10.9827 64.6987 11.5267 64.4 12.028C64.1013 12.5293 63.6587 12.9347 63.072 13.244C62.4853 13.5427 61.7653 13.692 60.912 13.692ZM66.2669 13.5V1.98H68.3149V6.78C68.5815 6.34267 68.9389 6.00133 69.3869 5.756C69.8455 5.5 70.3682 5.372 70.9549 5.372C71.9362 5.372 72.6935 5.68133 73.2269 6.3C73.7709 6.91867 74.0429 7.82533 74.0429 9.02V13.5H72.0109V9.212C72.0109 8.52933 71.8722 8.00667 71.5949 7.644C71.3282 7.28133 70.9015 7.1 70.3149 7.1C69.7389 7.1 69.2589 7.30267 68.8749 7.708C68.5015 8.11333 68.3149 8.67867 68.3149 9.404V13.5H66.2669ZM79.4893 13.692C78.7213 13.692 78.0279 13.516 77.4093 13.164C76.8013 12.812 76.3159 12.3267 75.9533 11.708C75.6013 11.0787 75.4253 10.3533 75.4253 9.532C75.4253 8.71067 75.6066 7.99067 75.9693 7.372C76.3319 6.74267 76.8173 6.252 77.4253 5.9C78.0439 5.548 78.7373 5.372 79.5053 5.372C80.2626 5.372 80.9453 5.548 81.5533 5.9C82.1719 6.252 82.6573 6.74267 83.0093 7.372C83.3719 7.99067 83.5533 8.71067 83.5533 9.532C83.5533 10.3533 83.3719 11.0787 83.0093 11.708C82.6573 12.3267 82.1719 12.812 81.5533 13.164C80.9346 13.516 80.2466 13.692 79.4893 13.692ZM79.4893 11.916C80.0226 11.916 80.4866 11.7187 80.8813 11.324C81.2759 10.9187 81.4733 10.3213 81.4733 9.532C81.4733 8.74267 81.2759 8.15067 80.8813 7.756C80.4866 7.35067 80.0279 7.148 79.5053 7.148C78.9613 7.148 78.4919 7.35067 78.0973 7.756C77.7133 8.15067 77.5213 8.74267 77.5213 9.532C77.5213 10.3213 77.7133 10.9187 78.0973 11.324C78.4919 11.7187 78.9559 11.916 79.4893 11.916ZM85.0644 17.02V5.564H86.8884L87.1124 6.7C87.3684 6.348 87.7044 6.03867 88.1204 5.772C88.547 5.50533 89.0964 5.372 89.7684 5.372C90.515 5.372 91.1817 5.55333 91.7684 5.916C92.355 6.27867 92.819 6.77467 93.1604 7.404C93.5017 8.03333 93.6724 8.748 93.6724 9.548C93.6724 10.348 93.5017 11.0627 93.1604 11.692C92.819 12.3107 92.355 12.8013 91.7684 13.164C91.1817 13.516 90.515 13.692 89.7684 13.692C89.171 13.692 88.6484 13.58 88.2004 13.356C87.7524 13.132 87.3897 12.8173 87.1124 12.412V17.02H85.0644ZM89.3364 11.9C89.987 11.9 90.5257 11.6813 90.9524 11.244C91.379 10.8067 91.5924 10.2413 91.5924 9.548C91.5924 8.85467 91.379 8.284 90.9524 7.836C90.5257 7.388 89.987 7.164 89.3364 7.164C88.675 7.164 88.131 7.388 87.7044 7.836C87.2884 8.27333 87.0804 8.83867 87.0804 9.532C87.0804 10.2253 87.2884 10.796 87.7044 11.244C88.131 11.6813 88.675 11.9 89.3364 11.9ZM95.1819 17.02V5.564H97.0059L97.2299 6.7C97.4859 6.348 97.8219 6.03867 98.2379 5.772C98.6645 5.50533 99.2139 5.372 99.8859 5.372C100.633 5.372 101.299 5.55333 101.886 5.916C102.473 6.27867 102.937 6.77467 103.278 7.404C103.619 8.03333 103.79 8.748 103.79 9.548C103.79 10.348 103.619 11.0627 103.278 11.692C102.937 12.3107 102.473 12.8013 101.886 13.164C101.299 13.516 100.633 13.692 99.8859 13.692C99.2885 13.692 98.7659 13.58 98.3179 13.356C97.8699 13.132 97.5072 12.8173 97.2299 12.412V17.02H95.1819ZM99.4539 11.9C100.105 11.9 100.643 11.6813 101.07 11.244C101.497 10.8067 101.71 10.2413 101.71 9.548C101.71 8.85467 101.497 8.284 101.07 7.836C100.643 7.388 100.105 7.164 99.4539 7.164C98.7925 7.164 98.2485 7.388 97.8219 7.836C97.4059 8.27333 97.1979 8.83867 97.1979 9.532C97.1979 10.2253 97.4059 10.796 97.8219 11.244C98.2485 11.6813 98.7925 11.9 99.4539 11.9ZM109.155 13.692C108.355 13.692 107.646 13.5213 107.027 13.18C106.409 12.8387 105.923 12.3587 105.571 11.74C105.219 11.1213 105.043 10.4067 105.043 9.596C105.043 8.77467 105.214 8.044 105.555 7.404C105.907 6.764 106.387 6.268 106.995 5.916C107.614 5.55333 108.339 5.372 109.171 5.372C109.95 5.372 110.638 5.54267 111.235 5.884C111.833 6.22533 112.297 6.69467 112.627 7.292C112.969 7.87867 113.139 8.53467 113.139 9.26C113.139 9.37733 113.134 9.5 113.123 9.628C113.123 9.756 113.118 9.88933 113.107 10.028H107.075C107.118 10.6467 107.331 11.132 107.715 11.484C108.11 11.836 108.585 12.012 109.139 12.012C109.555 12.012 109.902 11.9213 110.179 11.74C110.467 11.548 110.681 11.3027 110.819 11.004H112.899C112.75 11.5053 112.499 11.964 112.147 12.38C111.806 12.7853 111.379 13.1053 110.867 13.34C110.366 13.5747 109.795 13.692 109.155 13.692ZM109.171 7.036C108.67 7.036 108.227 7.18 107.843 7.468C107.459 7.74533 107.214 8.172 107.107 8.748H111.059C111.027 8.22533 110.835 7.80933 110.483 7.5C110.131 7.19067 109.694 7.036 109.171 7.036ZM114.542 13.5V5.564H116.366L116.558 7.052C116.846 6.54 117.235 6.13467 117.726 5.836C118.227 5.52667 118.814 5.372 119.486 5.372V7.532H118.91C118.462 7.532 118.062 7.60133 117.71 7.74C117.358 7.87867 117.081 8.11867 116.878 8.46C116.686 8.80133 116.59 9.276 116.59 9.884V13.5H114.542ZM124.202 13.5V2.3H125.546V13.5H124.202ZM127.521 13.5V5.564H128.737L128.817 6.988C129.073 6.48667 129.441 6.092 129.921 5.804C130.401 5.516 130.945 5.372 131.553 5.372C132.492 5.372 133.238 5.66 133.793 6.236C134.358 6.80133 134.641 7.676 134.641 8.86V13.5H133.297V9.004C133.297 7.35067 132.614 6.524 131.249 6.524C130.566 6.524 129.996 6.77467 129.537 7.276C129.089 7.76667 128.865 8.47067 128.865 9.388V13.5H127.521ZM139.493 13.5C138.768 13.5 138.197 13.324 137.781 12.972C137.365 12.62 137.157 11.9853 137.157 11.068V6.7H135.781V5.564H137.157L137.333 3.66H138.501V5.564H140.837V6.7H138.501V11.068C138.501 11.5693 138.602 11.9107 138.805 12.092C139.008 12.2627 139.365 12.348 139.877 12.348H140.709V13.5H139.493ZM145.574 13.692C144.817 13.692 144.145 13.5213 143.558 13.18C142.971 12.828 142.507 12.3427 142.166 11.724C141.835 11.1053 141.67 10.3747 141.67 9.532C141.67 8.7 141.835 7.97467 142.166 7.356C142.497 6.72667 142.955 6.24133 143.542 5.9C144.139 5.548 144.827 5.372 145.606 5.372C146.374 5.372 147.035 5.548 147.59 5.9C148.155 6.24133 148.587 6.69467 148.886 7.26C149.185 7.82533 149.334 8.43333 149.334 9.084C149.334 9.20133 149.329 9.31867 149.318 9.436C149.318 9.55333 149.318 9.68667 149.318 9.836H142.998C143.03 10.444 143.169 10.9507 143.414 11.356C143.67 11.7507 143.985 12.0493 144.358 12.252C144.742 12.4547 145.147 12.556 145.574 12.556C146.129 12.556 146.593 12.428 146.966 12.172C147.339 11.916 147.611 11.5693 147.782 11.132H149.11C148.897 11.868 148.486 12.4813 147.878 12.972C147.281 13.452 146.513 13.692 145.574 13.692ZM145.574 6.508C144.934 6.508 144.363 6.70533 143.862 7.1C143.371 7.484 143.089 8.04933 143.014 8.796H148.006C147.974 8.08133 147.729 7.52133 147.27 7.116C146.811 6.71067 146.246 6.508 145.574 6.508ZM150.795 13.5V1.98H152.139V13.5H150.795ZM154.022 13.5V1.98H155.366V13.5H154.022ZM158.065 3.804C157.798 3.804 157.574 3.71867 157.393 3.548C157.222 3.36667 157.137 3.14267 157.137 2.876C157.137 2.62 157.222 2.40667 157.393 2.236C157.574 2.06533 157.798 1.98 158.065 1.98C158.321 1.98 158.54 2.06533 158.721 2.236C158.902 2.40667 158.993 2.62 158.993 2.876C158.993 3.14267 158.902 3.36667 158.721 3.548C158.54 3.71867 158.321 3.804 158.065 3.804ZM157.393 13.5V5.564H158.737V13.5H157.393ZM163.893 11.004C163.445 11.004 163.034 10.9453 162.661 10.828L161.861 11.58C161.978 11.6653 162.122 11.74 162.293 11.804C162.474 11.8573 162.73 11.9107 163.061 11.964C163.392 12.0067 163.856 12.0547 164.453 12.108C165.52 12.1827 166.282 12.428 166.741 12.844C167.2 13.26 167.429 13.804 167.429 14.476C167.429 14.9347 167.301 15.372 167.045 15.788C166.8 16.204 166.416 16.5453 165.893 16.812C165.381 17.0787 164.72 17.212 163.909 17.212C163.194 17.212 162.56 17.116 162.005 16.924C161.45 16.7427 161.018 16.46 160.709 16.076C160.4 15.7027 160.245 15.228 160.245 14.652C160.245 14.3533 160.325 14.028 160.485 13.676C160.645 13.3347 160.944 13.0093 161.381 12.7C161.146 12.604 160.944 12.5027 160.773 12.396C160.613 12.2787 160.464 12.1507 160.325 12.012V11.644L161.685 10.3C161.056 9.76667 160.741 9.06267 160.741 8.188C160.741 7.66533 160.864 7.19067 161.109 6.764C161.354 6.33733 161.712 6.00133 162.181 5.756C162.65 5.5 163.221 5.372 163.893 5.372C164.352 5.372 164.768 5.436 165.141 5.564H168.069V6.572L166.581 6.636C166.89 7.084 167.045 7.60133 167.045 8.188C167.045 8.71067 166.917 9.18533 166.661 9.612C166.416 10.0387 166.058 10.38 165.589 10.636C165.13 10.8813 164.565 11.004 163.893 11.004ZM163.893 9.9C164.458 9.9 164.906 9.756 165.237 9.468C165.578 9.16933 165.749 8.74267 165.749 8.188C165.749 7.644 165.578 7.228 165.237 6.94C164.906 6.64133 164.458 6.492 163.893 6.492C163.317 6.492 162.858 6.64133 162.517 6.94C162.186 7.228 162.021 7.644 162.021 8.188C162.021 8.74267 162.186 9.16933 162.517 9.468C162.858 9.756 163.317 9.9 163.893 9.9ZM161.557 14.524C161.557 15.0573 161.781 15.452 162.229 15.708C162.677 15.9747 163.237 16.108 163.909 16.108C164.57 16.108 165.098 15.964 165.493 15.676C165.898 15.388 166.101 15.004 166.101 14.524C166.101 14.1827 165.962 13.884 165.685 13.628C165.408 13.3827 164.896 13.2387 164.149 13.196C163.562 13.1533 163.056 13.1 162.629 13.036C162.192 13.2707 161.904 13.5213 161.765 13.788C161.626 14.0653 161.557 14.3107 161.557 14.524ZM172.521 13.692C171.763 13.692 171.091 13.5213 170.505 13.18C169.918 12.828 169.454 12.3427 169.113 11.724C168.782 11.1053 168.617 10.3747 168.617 9.532C168.617 8.7 168.782 7.97467 169.113 7.356C169.443 6.72667 169.902 6.24133 170.489 5.9C171.086 5.548 171.774 5.372 172.553 5.372C173.321 5.372 173.982 5.548 174.537 5.9C175.102 6.24133 175.534 6.69467 175.833 7.26C176.131 7.82533 176.281 8.43333 176.281 9.084C176.281 9.20133 176.275 9.31867 176.265 9.436C176.265 9.55333 176.265 9.68667 176.265 9.836H169.945C169.977 10.444 170.115 10.9507 170.361 11.356C170.617 11.7507 170.931 12.0493 171.305 12.252C171.689 12.4547 172.094 12.556 172.521 12.556C173.075 12.556 173.539 12.428 173.913 12.172C174.286 11.916 174.558 11.5693 174.729 11.132H176.057C175.843 11.868 175.433 12.4813 174.825 12.972C174.227 13.452 173.459 13.692 172.521 13.692ZM172.521 6.508C171.881 6.508 171.31 6.70533 170.809 7.1C170.318 7.484 170.035 8.04933 169.961 8.796H174.953C174.921 8.08133 174.675 7.52133 174.217 7.116C173.758 6.71067 173.193 6.508 172.521 6.508ZM177.742 13.5V5.564H178.958L179.038 6.988C179.294 6.48667 179.662 6.092 180.142 5.804C180.622 5.516 181.166 5.372 181.774 5.372C182.713 5.372 183.459 5.66 184.014 6.236C184.579 6.80133 184.862 7.676 184.862 8.86V13.5H183.518V9.004C183.518 7.35067 182.835 6.524 181.47 6.524C180.787 6.524 180.217 6.77467 179.758 7.276C179.31 7.76667 179.086 8.47067 179.086 9.388V13.5H177.742ZM190.226 13.692C189.469 13.692 188.786 13.5213 188.178 13.18C187.581 12.828 187.106 12.3427 186.754 11.724C186.413 11.0947 186.242 10.364 186.242 9.532C186.242 8.7 186.413 7.97467 186.754 7.356C187.106 6.72667 187.581 6.24133 188.178 5.9C188.786 5.548 189.469 5.372 190.226 5.372C191.165 5.372 191.954 5.61733 192.594 6.108C193.245 6.59867 193.656 7.25467 193.826 8.076H192.45C192.344 7.58533 192.082 7.20667 191.666 6.94C191.25 6.66267 190.765 6.524 190.21 6.524C189.762 6.524 189.341 6.636 188.946 6.86C188.552 7.084 188.232 7.42 187.986 7.868C187.741 8.316 187.618 8.87067 187.618 9.532C187.618 10.1933 187.741 10.748 187.986 11.196C188.232 11.644 188.552 11.9853 188.946 12.22C189.341 12.444 189.762 12.556 190.21 12.556C190.765 12.556 191.25 12.4227 191.666 12.156C192.082 11.8787 192.344 11.4893 192.45 10.988H193.826C193.666 11.788 193.261 12.4387 192.61 12.94C191.96 13.4413 191.165 13.692 190.226 13.692ZM198.951 13.692C198.194 13.692 197.522 13.5213 196.935 13.18C196.349 12.828 195.885 12.3427 195.543 11.724C195.213 11.1053 195.047 10.3747 195.047 9.532C195.047 8.7 195.213 7.97467 195.543 7.356C195.874 6.72667 196.333 6.24133 196.919 5.9C197.517 5.548 198.205 5.372 198.983 5.372C199.751 5.372 200.413 5.548 200.967 5.9C201.533 6.24133 201.965 6.69467 202.263 7.26C202.562 7.82533 202.711 8.43333 202.711 9.084C202.711 9.20133 202.706 9.31867 202.695 9.436C202.695 9.55333 202.695 9.68667 202.695 9.836H196.375C196.407 10.444 196.546 10.9507 196.791 11.356C197.047 11.7507 197.362 12.0493 197.735 12.252C198.119 12.4547 198.525 12.556 198.951 12.556C199.506 12.556 199.97 12.428 200.343 12.172C200.717 11.916 200.989 11.5693 201.159 11.132H202.487C202.274 11.868 201.863 12.4813 201.255 12.972C200.658 13.452 199.89 13.692 198.951 13.692ZM198.951 6.508C198.311 6.508 197.741 6.70533 197.239 7.1C196.749 7.484 196.466 8.04933 196.391 8.796H201.383C201.351 8.08133 201.106 7.52133 200.647 7.116C200.189 6.71067 199.623 6.508 198.951 6.508ZM59.936 27.644C59.584 27.644 59.26 27.592 58.964 27.488C58.676 27.376 58.424 27.228 58.208 27.044C57.992 26.852 57.82 26.636 57.692 26.396L57.62 27.5H56.852V18.86H57.692V22.544C57.892 22.2 58.18 21.908 58.556 21.668C58.932 21.428 59.392 21.308 59.936 21.308C60.528 21.308 61.044 21.448 61.484 21.728C61.924 22 62.26 22.376 62.492 22.856C62.732 23.328 62.852 23.868 62.852 24.476C62.852 25.084 62.732 25.628 62.492 26.108C62.252 26.588 61.912 26.964 61.472 27.236C61.04 27.508 60.528 27.644 59.936 27.644ZM59.876 26.912C60.3 26.912 60.668 26.812 60.98 26.612C61.292 26.412 61.54 26.128 61.724 25.76C61.908 25.392 62 24.964 62 24.476C62 23.98 61.908 23.552 61.724 23.192C61.54 22.824 61.288 22.54 60.968 22.34C60.656 22.14 60.292 22.04 59.876 22.04C59.46 22.04 59.088 22.14 58.76 22.34C58.44 22.54 58.188 22.824 58.004 23.192C57.828 23.56 57.74 23.988 57.74 24.476C57.74 24.972 57.828 25.404 58.004 25.772C58.188 26.132 58.44 26.412 58.76 26.612C59.088 26.812 59.46 26.912 59.876 26.912ZM64.2204 30.14L65.7084 26.828H65.3844L62.9964 21.452H63.9084L65.9724 26.252L68.1444 21.452H69.0084L65.0964 30.14H64.2204ZM75.6367 27.644C75.0207 27.644 74.4847 27.532 74.0287 27.308C73.5807 27.084 73.2367 26.772 72.9967 26.372C72.7567 25.964 72.6367 25.5 72.6367 24.98H73.5127C73.5127 25.332 73.5927 25.656 73.7527 25.952C73.9127 26.248 74.1487 26.488 74.4607 26.672C74.7727 26.848 75.1647 26.936 75.6367 26.936C76.0527 26.936 76.4007 26.868 76.6807 26.732C76.9687 26.588 77.1887 26.4 77.3407 26.168C77.4927 25.936 77.5687 25.672 77.5687 25.376C77.5687 25.024 77.4927 24.74 77.3407 24.524C77.1967 24.308 76.9967 24.132 76.7407 23.996C76.4847 23.86 76.1927 23.744 75.8647 23.648C75.5447 23.544 75.2047 23.432 74.8447 23.312C74.1967 23.088 73.7207 22.812 73.4167 22.484C73.1127 22.156 72.9567 21.736 72.9487 21.224C72.9487 20.784 73.0487 20.396 73.2487 20.06C73.4567 19.716 73.7567 19.448 74.1487 19.256C74.5407 19.056 75.0047 18.956 75.5407 18.956C76.0607 18.956 76.5127 19.056 76.8967 19.256C77.2887 19.448 77.5927 19.72 77.8087 20.072C78.0247 20.416 78.1327 20.812 78.1327 21.26H77.2687C77.2687 21.004 77.2007 20.756 77.0647 20.516C76.9367 20.268 76.7407 20.068 76.4767 19.916C76.2207 19.756 75.8927 19.676 75.4927 19.676C75.1647 19.676 74.8727 19.736 74.6167 19.856C74.3687 19.968 74.1727 20.136 74.0287 20.36C73.8847 20.576 73.8127 20.832 73.8127 21.128C73.8127 21.416 73.8767 21.652 74.0047 21.836C74.1327 22.02 74.3127 22.172 74.5447 22.292C74.7767 22.412 75.0487 22.524 75.3607 22.628C75.6727 22.724 76.0207 22.836 76.4047 22.964C76.7967 23.1 77.1447 23.264 77.4487 23.456C77.7527 23.648 77.9927 23.896 78.1687 24.2C78.3447 24.496 78.4327 24.872 78.4327 25.328C78.4327 25.72 78.3287 26.096 78.1207 26.456C77.9207 26.808 77.6127 27.096 77.1967 27.32C76.7807 27.536 76.2607 27.644 75.6367 27.644ZM79.7308 27.5V21.452H80.5588V27.5H79.7308ZM80.1508 20.024C79.9828 20.024 79.8388 19.968 79.7188 19.856C79.5988 19.736 79.5388 19.588 79.5388 19.412C79.5388 19.228 79.5948 19.084 79.7068 18.98C79.8268 18.868 79.9708 18.812 80.1388 18.812C80.3068 18.812 80.4508 18.868 80.5708 18.98C80.6908 19.084 80.7508 19.228 80.7508 19.412C80.7508 19.588 80.6908 19.736 80.5708 19.856C80.4588 19.968 80.3188 20.024 80.1508 20.024ZM82.1481 27.5V21.452H82.9161L82.9761 22.364C83.1601 22.028 83.4161 21.768 83.7441 21.584C84.0721 21.4 84.4361 21.308 84.8361 21.308C85.1321 21.308 85.4081 21.352 85.6641 21.44C85.9201 21.528 86.1441 21.66 86.3361 21.836C86.5361 22.012 86.6921 22.24 86.8041 22.52C87.0041 22.144 87.2841 21.848 87.6441 21.632C88.0121 21.416 88.4041 21.308 88.8201 21.308C89.2841 21.308 89.6841 21.4 90.0201 21.584C90.3641 21.768 90.6321 22.048 90.8241 22.424C91.0161 22.8 91.1121 23.276 91.1121 23.852V27.5H90.2721V23.948C90.2721 23.308 90.1401 22.832 89.8761 22.52C89.6121 22.2 89.2441 22.04 88.7721 22.04C88.4521 22.04 88.1601 22.128 87.8961 22.304C87.6321 22.472 87.4241 22.72 87.2721 23.048C87.1201 23.368 87.0441 23.768 87.0441 24.248V27.5H86.2041V23.948C86.2041 23.308 86.0721 22.832 85.8081 22.52C85.5521 22.2 85.1881 22.04 84.7161 22.04C84.3881 22.04 84.0921 22.128 83.8281 22.304C83.5721 22.472 83.3681 22.724 83.2161 23.06C83.0641 23.388 82.9881 23.796 82.9881 24.284V27.5H82.1481ZM92.575 27.5V21.452H93.403V27.5H92.575ZM92.995 20.024C92.827 20.024 92.683 19.968 92.563 19.856C92.443 19.736 92.383 19.588 92.383 19.412C92.383 19.228 92.439 19.084 92.551 18.98C92.671 18.868 92.815 18.812 92.983 18.812C93.151 18.812 93.295 18.868 93.415 18.98C93.535 19.084 93.595 19.228 93.595 19.412C93.595 19.588 93.535 19.736 93.415 19.856C93.303 19.968 93.163 20.024 92.995 20.024ZM94.9923 27.5V18.86H95.8323V27.5H94.9923ZM99.2273 27.644C98.7393 27.644 98.3313 27.556 98.0033 27.38C97.6833 27.204 97.4433 26.976 97.2833 26.696C97.1313 26.416 97.0553 26.108 97.0553 25.772C97.0553 25.356 97.1593 25.004 97.3673 24.716C97.5833 24.428 97.8833 24.212 98.2673 24.068C98.6513 23.924 99.0993 23.852 99.6113 23.852H101.243C101.243 23.46 101.183 23.128 101.063 22.856C100.943 22.584 100.767 22.38 100.535 22.244C100.303 22.1 100.011 22.028 99.6593 22.028C99.2513 22.028 98.8993 22.132 98.6033 22.34C98.3073 22.548 98.1233 22.852 98.0513 23.252H97.1753C97.2233 22.828 97.3673 22.472 97.6073 22.184C97.8553 21.896 98.1593 21.68 98.5193 21.536C98.8793 21.384 99.2593 21.308 99.6593 21.308C100.219 21.308 100.675 21.416 101.027 21.632C101.379 21.84 101.643 22.128 101.819 22.496C101.995 22.864 102.083 23.288 102.083 23.768V27.5H101.315L101.267 26.396C101.195 26.564 101.095 26.724 100.967 26.876C100.847 27.028 100.703 27.16 100.535 27.272C100.375 27.384 100.187 27.472 99.9713 27.536C99.7553 27.608 99.5073 27.644 99.2273 27.644ZM99.3233 26.912C99.6193 26.912 99.8833 26.852 100.115 26.732C100.355 26.604 100.559 26.44 100.727 26.24C100.895 26.04 101.023 25.816 101.111 25.568C101.199 25.312 101.243 25.048 101.243 24.776V24.56H99.6713C99.2473 24.56 98.9073 24.612 98.6513 24.716C98.3953 24.82 98.2113 24.96 98.0993 25.136C97.9873 25.312 97.9313 25.516 97.9313 25.748C97.9313 25.98 97.9833 26.184 98.0873 26.36C98.1913 26.528 98.3473 26.664 98.5553 26.768C98.7713 26.864 99.0273 26.912 99.3233 26.912ZM103.43 27.5V21.452H104.198L104.258 22.616C104.386 22.336 104.558 22.1 104.774 21.908C104.99 21.716 105.25 21.568 105.554 21.464C105.858 21.36 106.202 21.308 106.586 21.308V22.184H106.262C106.006 22.184 105.758 22.22 105.518 22.292C105.278 22.356 105.066 22.468 104.882 22.628C104.698 22.788 104.55 23.004 104.438 23.276C104.326 23.548 104.27 23.888 104.27 24.296V27.5H103.43ZM108.774 27.5L106.998 21.452H107.85L109.29 26.624H109.122L110.682 21.452H111.642L113.202 26.624H113.034L114.474 21.452H115.326L113.55 27.5H112.698L111.078 22.088H111.246L109.626 27.5H108.774ZM118.62 27.644C118.06 27.644 117.564 27.512 117.132 27.248C116.708 26.984 116.372 26.616 116.124 26.144C115.884 25.664 115.764 25.104 115.764 24.464C115.764 23.824 115.884 23.268 116.124 22.796C116.364 22.324 116.7 21.96 117.132 21.704C117.572 21.44 118.076 21.308 118.644 21.308C119.228 21.308 119.72 21.44 120.12 21.704C120.528 21.968 120.836 22.312 121.044 22.736C121.26 23.16 121.368 23.624 121.368 24.128C121.368 24.208 121.368 24.292 121.368 24.38C121.368 24.46 121.364 24.556 121.356 24.668H116.4V23.96H120.552C120.536 23.344 120.344 22.868 119.976 22.532C119.616 22.196 119.16 22.028 118.608 22.028C118.248 22.028 117.912 22.112 117.6 22.28C117.296 22.44 117.048 22.68 116.856 23C116.672 23.312 116.58 23.708 116.58 24.188V24.5C116.58 25.044 116.676 25.496 116.868 25.856C117.06 26.216 117.312 26.484 117.624 26.66C117.944 26.836 118.276 26.924 118.62 26.924C119.076 26.924 119.452 26.824 119.748 26.624C120.044 26.416 120.256 26.132 120.384 25.772H121.212C121.108 26.124 120.94 26.444 120.708 26.732C120.484 27.02 120.196 27.244 119.844 27.404C119.492 27.564 119.084 27.644 118.62 27.644ZM125.587 27.644C125.235 27.644 124.911 27.592 124.615 27.488C124.327 27.376 124.075 27.228 123.859 27.044C123.643 26.852 123.471 26.636 123.343 26.396L123.271 27.5H122.503V18.86H123.343V22.544C123.543 22.2 123.831 21.908 124.207 21.668C124.583 21.428 125.043 21.308 125.587 21.308C126.179 21.308 126.695 21.448 127.135 21.728C127.575 22 127.911 22.376 128.143 22.856C128.383 23.328 128.503 23.868 128.503 24.476C128.503 25.084 128.383 25.628 128.143 26.108C127.903 26.588 127.563 26.964 127.123 27.236C126.691 27.508 126.179 27.644 125.587 27.644ZM125.527 26.912C125.951 26.912 126.319 26.812 126.631 26.612C126.943 26.412 127.191 26.128 127.375 25.76C127.559 25.392 127.651 24.964 127.651 24.476C127.651 23.98 127.559 23.552 127.375 23.192C127.191 22.824 126.939 22.54 126.619 22.34C126.307 22.14 125.943 22.04 125.527 22.04C125.111 22.04 124.739 22.14 124.411 22.34C124.091 22.54 123.839 22.824 123.655 23.192C123.479 23.56 123.391 23.988 123.391 24.476C123.391 24.972 123.479 25.404 123.655 25.772C123.839 26.132 124.091 26.412 124.411 26.612C124.739 26.812 125.111 26.912 125.527 26.912Z" fill="#092540"/>
<defs>
<filter id="filter0_d_87_205" x="35" y="17" width="15" height="15" filterUnits="userSpaceOnUse" color-interpolation-filters="sRGB">
<feFlood flood-opacity="0" result="BackgroundImageFix"/>
<feColorMatrix in="SourceAlpha" type="matrix" values="0 0 0 0 0 0 0 0 0 0 0 0 0 0 0 0 0 0 127 0" result="hardAlpha"/>
<feOffset/>
<feGaussianBlur stdDeviation="1"/>
<feComposite in2="hardAlpha" operator="out"/>
<feColorMatrix type="matrix" values="0 0 0 0 0.0352941 0 0 0 0 0.145098 0 0 0 0 0.25098 0 0 0 0.15 0"/>
<feBlend mode="normal" in2="BackgroundImageFix" result="effect1_dropShadow_87_205"/>
<feBlend mode="normal" in="SourceGraphic" in2="effect1_dropShadow_87_205" result="shape"/>
</filter>
<linearGradient id="paint0_linear_87_205" x1="36.6922" y1="9.76053" x2="27.519" y2="38.6841" gradientUnits="userSpaceOnUse">
<stop stop-color="white"/>
<stop offset="1" stop-color="white" stop-opacity="0.16"/>
</linearGradient>
<linearGradient id="paint1_linear_87_205" x1="27.2296" y1="13.1365" x2="27.3998" y2="25.5749" gradientUnits="userSpaceOnUse">
<stop stop-color="white"/>
<stop offset="0.65625" stop-color="white"/>
</linearGradient>
<linearGradient id="paint2_linear_87_205" x1="10.4476" y1="3.9843" x2="36.8966" y2="17.1677" gradientUnits="userSpaceOnUse">
<stop stop-color="white"/>
<stop offset="1" stop-color="white" stop-opacity="0.15"/>
</linearGradient>
</defs>
</svg>
