<svg width="166" height="152" viewBox="0 0 166 152" fill="none" xmlns="http://www.w3.org/2000/svg">
<circle cx="82.4781" cy="74.7869" r="62.2972" fill="url(#paint0_radial_274_5691)"/>
<circle cx="82.4781" cy="74.7864" r="62.2972" transform="rotate(-13.0886 82.4781 74.7864)" stroke="#CCDEF7" stroke-width="3.5097" stroke-linecap="round" stroke-dasharray="18.43 18.43"/>
<path d="M0 41.3164V37.935C0 36.4812 1.17851 35.3027 2.63228 35.3027H34.2196C35.6733 35.3027 36.8518 36.4812 36.8518 37.935V41.3387C36.8518 41.9729 36.6229 42.5858 36.207 43.0647L23.0192 58.2507C22.6033 58.7295 22.3743 59.3424 22.3743 59.9766V69.5223C22.3743 70.9761 21.1958 72.1546 19.7421 72.1546H17.5485C16.0947 72.1546 14.9162 70.9761 14.9162 69.5223V59.9989C14.9162 59.3513 14.6775 58.7264 14.2456 58.2437L0.670595 43.0716C0.238754 42.589 0 41.9641 0 41.3164Z" fill="url(#paint1_linear_274_5691)"/>
<path d="M67.6527 39.6895H54.4004C48.5854 39.6895 43.8713 44.4035 43.8713 50.2185V98.0382C43.8713 102.4 47.4069 105.935 51.7682 105.935H108.362L115.82 76.98V55.0444C115.82 50.1985 111.892 46.2701 107.046 46.2701H79.3616C78.5406 46.2701 77.7455 45.9823 77.1147 45.4567L72.1464 41.3164C70.8849 40.2652 69.2948 39.6895 67.6527 39.6895Z" fill="white"/>
<path d="M69.6798 43.6382H56.594C50.779 43.6382 46.0649 48.3522 46.0649 54.1673V97.5998C46.0649 103.415 50.779 108.129 56.594 108.129H108.515C109.716 108.129 110.765 107.316 111.065 106.153L117.931 79.4969C117.986 79.2824 118.014 79.0618 118.014 78.8403V60.748C118.014 54.9329 113.3 50.2189 107.485 50.2189H79.4827C78.8669 50.2189 78.2706 50.003 77.7975 49.6088L71.365 44.2483C70.8919 43.8541 70.2956 43.6382 69.6798 43.6382Z" fill="url(#paint2_linear_274_5691)"/>
<rect x="50.0132" y="59.8706" width="71.0714" height="48.2584" rx="6.14197" fill="white"/>
<rect opacity="0.5" x="50.0132" y="67.7671" width="71.0714" height="40.3615" rx="6.14197" fill="#EFF4FB"/>
<g filter="url(#filter0_d_274_5691)">
<rect x="126.349" y="88.8257" width="37.7293" height="30.7099" rx="5.26455" fill="#FDFEFF"/>
</g>
<path d="M139.201 103.621C139.685 103.621 140.079 104.014 140.079 104.499V112.516C140.079 113.001 139.685 113.394 139.201 113.394H136C135.516 113.394 135.124 113.001 135.124 112.516V104.499C135.124 104.014 135.516 103.621 136 103.621H139.201ZM147.252 100.171C147.737 100.171 148.13 100.565 148.13 101.049V112.516C148.13 113.001 147.737 113.393 147.252 113.393H144.052C143.568 113.393 143.175 113.001 143.175 112.516V101.049C143.175 100.565 143.568 100.172 144.052 100.171H147.252ZM155.304 96.7222C155.789 96.7222 156.182 97.1155 156.182 97.6001V112.516C156.182 113.001 155.789 113.393 155.304 113.393H152.104C151.62 113.393 151.227 113.001 151.227 112.516V97.6001C151.227 97.1156 151.62 96.7223 152.104 96.7222H155.304Z" fill="#D5E5F8"/>
<path d="M138.422 16.4154L138.367 15.999L138.357 16.076C137.955 19.1381 135.552 21.5512 132.491 21.9655C135.593 22.5954 137.955 25.1447 138.367 28.283L138.414 27.9286C138.801 24.983 140.995 22.5972 143.898 21.9655C141.036 21.5503 138.799 19.2829 138.422 16.4154Z" fill="#D9D9D9"/>
<path d="M138.422 16.4154L138.367 15.999L138.357 16.076C137.955 19.1381 135.552 21.5512 132.491 21.9655C135.593 22.5954 137.955 25.1447 138.367 28.283L138.414 27.9286C138.801 24.983 140.995 22.5972 143.898 21.9655C141.036 21.5503 138.799 19.2829 138.422 16.4154Z" fill="#DAE8F8"/>
<path d="M29.6212 10.2738L29.5665 9.85742L29.5564 9.93442C29.1543 12.9965 26.7508 15.4096 23.6904 15.8239C26.7924 16.4538 29.1544 19.0031 29.5665 22.1414L29.613 21.787C29.9998 18.8414 32.194 16.4556 35.097 15.8239C32.2348 15.4087 29.9977 13.1413 29.6212 10.2738Z" fill="#D9D9D9"/>
<path d="M29.6212 10.2738L29.5665 9.85742L29.5564 9.93442C29.1543 12.9965 26.7508 15.4096 23.6904 15.8239C26.7924 16.4538 29.1544 19.0031 29.5665 22.1414L29.613 21.787C29.9998 18.8414 32.194 16.4556 35.097 15.8239C32.2348 15.4087 29.9977 13.1413 29.6212 10.2738Z" fill="#DAE8F8"/>
<path d="M125.289 132.244L125.232 131.819C124.764 135.351 121.984 138.165 118.452 138.638C122.012 139.354 124.755 142.259 125.232 145.858L125.279 145.504C125.73 142.107 128.265 139.36 131.614 138.638C128.311 138.164 125.727 135.551 125.289 132.244Z" fill="#D9D9D9"/>
<path d="M125.289 132.244L125.232 131.819C124.764 135.351 121.984 138.165 118.452 138.638C122.012 139.354 124.755 142.259 125.232 145.858L125.279 145.504C125.73 142.107 128.265 139.36 131.614 138.638C128.311 138.164 125.727 135.551 125.289 132.244Z" fill="#DAE8F8"/>
<circle cx="82" cy="139" r="13" fill="url(#paint3_linear_274_5691)"/>
<path d="M81.6299 131.087C82.5662 131.087 83.326 131.846 83.3262 132.782V137.021H87.5654C88.5017 137.022 89.2607 137.781 89.2607 138.718C89.2605 139.654 88.5016 140.413 87.5654 140.413H83.3262V144.652C83.3261 145.589 82.5663 146.348 81.6299 146.348C80.6936 146.347 79.9347 145.589 79.9346 144.652V140.413H75.6953C74.759 140.413 74.0002 139.654 74 138.718C74 137.781 74.7589 137.022 75.6953 137.021H79.9346V132.782C79.9348 131.846 80.6937 131.087 81.6299 131.087Z" fill="white"/>
<defs>
<filter id="filter0_d_274_5691" x="124.594" y="87.9483" width="41.2389" height="34.2197" filterUnits="userSpaceOnUse" color-interpolation-filters="sRGB">
<feFlood flood-opacity="0" result="BackgroundImageFix"/>
<feColorMatrix in="SourceAlpha" type="matrix" values="0 0 0 0 0 0 0 0 0 0 0 0 0 0 0 0 0 0 127 0" result="hardAlpha"/>
<feOffset dy="0.877425"/>
<feGaussianBlur stdDeviation="0.877425"/>
<feComposite in2="hardAlpha" operator="out"/>
<feColorMatrix type="matrix" values="0 0 0 0 0.86484 0 0 0 0 0.920133 0 0 0 0 1 0 0 0 1 0"/>
<feBlend mode="normal" in2="BackgroundImageFix" result="effect1_dropShadow_274_5691"/>
<feBlend mode="normal" in="SourceGraphic" in2="effect1_dropShadow_274_5691" result="shape"/>
</filter>
<radialGradient id="paint0_radial_274_5691" cx="0" cy="0" r="1" gradientUnits="userSpaceOnUse" gradientTransform="translate(82.4781 74.7869) rotate(90) scale(62.2972)">
<stop offset="0.33" stop-color="#C7DDFE"/>
<stop offset="1" stop-color="white"/>
</radialGradient>
<linearGradient id="paint1_linear_274_5691" x1="0" y1="53.7287" x2="36.8518" y2="53.7287" gradientUnits="userSpaceOnUse">
<stop stop-color="#F7FDFD"/>
<stop offset="1" stop-color="#CCDEF7"/>
</linearGradient>
<linearGradient id="paint2_linear_274_5691" x1="46.0649" y1="75.8835" x2="118.014" y2="75.8835" gradientUnits="userSpaceOnUse">
<stop stop-color="#F7FDFD"/>
<stop offset="1" stop-color="#CCDEF7"/>
</linearGradient>
<linearGradient id="paint3_linear_274_5691" x1="82" y1="126" x2="82" y2="152" gradientUnits="userSpaceOnUse">
<stop stop-color="#E5F1FE"/>
<stop offset="1" stop-color="#D8E6FB"/>
</linearGradient>
</defs>
</svg>
