<svg width="91" height="97" viewBox="0 0 91 97" fill="none" xmlns="http://www.w3.org/2000/svg">
<path d="M11.78 24.5C9.56444 24.5 7.44909 26.1847 7.37864 28.6963C7.26338 32.8086 8.14995 38.4196 11.2849 43.5059C14.4685 48.6709 19.8863 53.1461 28.4919 54.9473C30.7399 55.4177 32.6999 55.5745 34.3425 55.334C36.0179 55.0886 37.5601 54.3915 38.571 53.001C39.5575 51.6441 39.7331 50.0423 39.5925 48.6162C39.4517 47.1879 38.9737 45.6844 38.3425 44.2148C35.855 38.4229 30.0465 31.0688 25.448 25.9717L25.282 25.7979C24.434 24.954 23.2953 24.5 22.1238 24.5H11.78ZM21.8943 29.5C26.4178 34.5359 31.6358 41.2687 33.7488 46.1885C34.2738 47.4111 34.5459 48.3862 34.6169 49.1064C34.6881 49.829 34.5369 50.0457 34.5261 50.0605C34.5183 50.0713 34.4877 50.1139 34.3757 50.1729C34.2522 50.2379 34.0183 50.3281 33.6179 50.3867C32.7898 50.5079 31.4758 50.4631 29.5154 50.0527C22.2583 48.5337 18.0079 44.883 15.5417 40.8818C13.1883 37.0636 12.3849 32.7937 12.3689 29.5H21.8943Z" fill="url(#paint0_linear_274_5489)"/>
<path d="M79.2239 24.5C81.4395 24.5 83.5548 26.1847 83.6253 28.6963C83.7405 32.8086 82.854 38.4196 79.719 43.5059C76.5354 48.6709 71.1176 53.1461 62.512 54.9473C60.264 55.4177 58.304 55.5745 56.6614 55.334C54.986 55.0886 53.4438 54.3915 52.4329 53.001C51.4464 51.6441 51.2708 50.0423 51.4114 48.6162C51.5522 47.1879 52.0303 45.6844 52.6614 44.2148C55.149 38.4229 60.9574 31.0688 65.5559 25.9717L65.7219 25.7979C66.5699 24.954 67.7086 24.5 68.8801 24.5H79.2239ZM69.1096 29.5C64.5861 34.5359 59.3681 41.2687 57.2551 46.1885C56.7301 47.4111 56.458 48.3862 56.387 49.1064C56.3158 49.829 56.467 50.0457 56.4778 50.0605C56.4856 50.0713 56.5162 50.1139 56.6282 50.1729C56.7517 50.2379 56.9856 50.3281 57.386 50.3867C58.2141 50.5079 59.5281 50.4631 61.4885 50.0527C68.7456 48.5337 72.996 44.883 75.4622 40.8818C77.8156 37.0636 78.619 32.7937 78.635 29.5H69.1096Z" fill="url(#paint1_linear_274_5489)"/>
<path d="M51.0002 62.5C51.4002 72.9 57.1669 74.5 60.0002 74L45.5002 78L31.0002 74C39.0002 74 40.3336 66 40.0002 62H51.0002V62.5Z" fill="url(#paint2_linear_274_5489)"/>
<path d="M22.6609 25H69.6609C70.3276 37.6667 66.4609 63 45.6609 63C24.8609 63 21.6609 37.6667 22.6609 25Z" fill="url(#paint3_linear_274_5489)"/>
<path d="M46.1141 47.9453L41.1149 50.2382C40.3966 50.5677 39.598 49.9731 39.7077 49.1905L40.4446 43.9327C40.4892 43.6146 40.3783 43.2945 40.1466 43.0722L35.9208 39.0185C35.3304 38.4521 35.6329 37.455 36.4385 37.3122L42.1627 36.2975C42.4634 36.2442 42.7232 36.0564 42.8683 35.7877L45.6086 30.7094C45.9948 29.9937 47.0283 30.0137 47.3865 30.7438L49.8505 35.7666C49.9884 36.0479 50.2502 36.2482 50.5577 36.3079L55.8116 37.3279C56.5647 37.4741 56.8795 38.3789 56.3798 38.9609L52.8407 43.0834C52.6536 43.3014 52.5692 43.5892 52.6091 43.8736L53.3543 49.1905C53.464 49.9731 52.6654 50.5677 51.9471 50.2382L46.9479 47.9453C46.6832 47.8239 46.3788 47.8239 46.1141 47.9453Z" fill="white"/>
<rect x="17.5002" y="16" width="56" height="9" rx="3" fill="url(#paint4_linear_274_5489)"/>
<rect x="28.5002" y="74" width="34" height="7" rx="3" fill="url(#paint5_linear_274_5489)"/>
<path d="M9.70024 5.46341C9.02351 4.80319 8.39543 3.32876 7.95166 2.07785C7.77413 1.57742 6.92972 1.60467 6.78409 2.1153C6.42967 3.35793 5.91331 4.80952 5.30024 5.46341C4.62742 6.18105 3.25359 6.81443 2.14745 7.24087C1.67881 7.42154 1.67971 8.18546 2.14863 8.36539C3.25657 8.79054 4.63208 9.42381 5.30024 10.1463C5.92125 10.8179 6.4147 12.2419 6.75609 13.5172C6.89789 14.0469 7.82343 14.0755 7.99672 13.5553C8.42491 12.2698 9.02096 10.8235 9.70024 10.1463C10.4173 9.43154 11.8474 8.77973 12.961 8.34639C13.4204 8.16759 13.4218 7.43799 12.9628 7.25799C11.852 6.82237 10.4246 6.17008 9.70024 5.46341Z" fill="url(#paint6_linear_274_5489)"/>
<circle cx="78.0002" cy="74" r="13" fill="url(#paint7_linear_274_5489)"/>
<path d="M77.7825 66.0869C78.7188 66.0869 79.4786 66.8459 79.4788 67.7822V72.0215H83.718C84.6543 72.0217 85.4133 72.7814 85.4133 73.7178C85.4131 74.654 84.6542 75.4129 83.718 75.4131H79.4788V79.6523C79.4787 80.5887 78.7189 81.3477 77.7825 81.3477C76.8462 81.3474 76.0872 80.5886 76.0872 79.6523V75.4131H71.8479C70.9116 75.413 70.1528 74.654 70.1526 73.7178C70.1526 72.7813 70.9115 72.0216 71.8479 72.0215H76.0872V67.7822C76.0874 66.846 76.8463 66.0871 77.7825 66.0869Z" fill="white"/>
<path d="M52.7541 95.2297C50.131 95.8895 47.4402 96.2977 44.717 96.4416C42.3349 96.5674 39.9566 96.4896 37.6066 96.214L36.6017 96.0841L36.4504 96.0549C35.7124 95.8725 35.2183 95.1567 35.3273 94.3879C35.4438 93.5679 36.2026 92.9972 37.0226 93.1134C39.5075 93.4658 42.0309 93.5791 44.5588 93.4455C47.0875 93.3118 49.5865 92.9333 52.0226 92.3205L52.7541 95.2297ZM52.0226 92.3205C52.826 92.1185 53.6409 92.606 53.843 93.4093C54.045 94.2127 53.5575 95.0276 52.7541 95.2297L52.0226 92.3205ZM17.1125 84.1437C19.038 85.7796 21.1221 87.2333 23.339 88.4787C25.2724 89.5648 27.2842 90.4798 29.3517 91.2189L30.2414 91.5246L30.384 91.5802C31.0783 91.8905 31.4384 92.6825 31.1945 93.4201C30.9507 94.1575 30.1897 94.5788 29.4474 94.4142L29.3 94.3732L28.342 94.0441C26.1158 93.2483 23.9503 92.2629 21.8693 91.0939C19.4834 89.7536 17.2414 88.1906 15.1701 86.4308L17.1125 84.1437ZM65.1535 86.2687C65.8292 85.7897 66.7651 85.9487 67.2443 86.6242C67.7234 87.3 67.5646 88.2369 66.8888 88.716C64.6622 90.2945 62.3009 91.6463 59.84 92.759C59.0852 93.1002 58.196 92.7648 57.8547 92.0099C57.5134 91.2551 57.8489 90.3669 58.6037 90.0256C60.8899 88.9919 63.084 87.7358 65.1535 86.2687ZM14.9982 84.3166C15.5345 83.6854 16.4811 83.6077 17.1125 84.1437L15.1701 86.4308C14.5389 85.8945 14.4622 84.9479 14.9982 84.3166ZM4.93182 65.8566C5.70767 68.2756 6.71284 70.6246 7.93963 72.8693C9.1625 75.1068 10.5893 77.2099 12.1945 79.1545C12.7219 79.7933 12.6312 80.7394 11.9924 81.2668C11.3535 81.7939 10.4084 81.7034 9.88104 81.0646C8.15497 78.9737 6.62205 76.7125 5.30779 74.3078C3.98932 71.8953 2.9089 69.3715 2.07537 66.7726L4.93182 65.8566ZM3.0451 64.8859C3.83395 64.6329 4.67882 65.0678 4.93182 65.8566L2.07537 66.7726C1.82241 65.9839 2.25648 65.1391 3.0451 64.8859ZM1.63787 49.7814C2.46514 49.8252 3.10062 50.5313 3.05682 51.3586C2.93833 53.5964 3.00598 55.8309 3.25506 58.0392L3.37322 58.9845L3.38592 59.1379C3.41201 59.8975 2.85936 60.5688 2.09002 60.674C1.32043 60.7791 0.607236 60.2804 0.428888 59.5412L0.400568 59.3908L0.274592 58.3761C0.00697765 56.0039 -0.0665638 53.6033 0.0607243 51.1994C0.104708 50.3724 0.810883 49.7378 1.63787 49.7814Z" fill="url(#paint8_linear_274_5489)"/>
<defs>
<linearGradient id="paint0_linear_274_5489" x1="23.502" y1="24.5" x2="23.502" y2="55.4456" gradientUnits="userSpaceOnUse">
<stop stop-color="#D6E5FB"/>
<stop offset="1" stop-color="#C3DBFF"/>
</linearGradient>
<linearGradient id="paint1_linear_274_5489" x1="67.5019" y1="24.5" x2="67.5019" y2="55.4456" gradientUnits="userSpaceOnUse">
<stop stop-color="#D6E5FB"/>
<stop offset="1" stop-color="#C3DBFF"/>
</linearGradient>
<linearGradient id="paint2_linear_274_5489" x1="45.5002" y1="62" x2="45.5002" y2="78" gradientUnits="userSpaceOnUse">
<stop stop-color="#D6E5FB"/>
<stop offset="1" stop-color="#C3DBFF"/>
</linearGradient>
<linearGradient id="paint3_linear_274_5489" x1="46.1152" y1="25" x2="46.1152" y2="63" gradientUnits="userSpaceOnUse">
<stop stop-color="#D6E5FB"/>
<stop offset="1" stop-color="#C3DBFF"/>
</linearGradient>
<linearGradient id="paint4_linear_274_5489" x1="45.5002" y1="16" x2="45.5002" y2="25" gradientUnits="userSpaceOnUse">
<stop stop-color="#D6E5FB"/>
<stop offset="1" stop-color="#C3DBFF"/>
</linearGradient>
<linearGradient id="paint5_linear_274_5489" x1="45.5002" y1="74" x2="45.5002" y2="81" gradientUnits="userSpaceOnUse">
<stop stop-color="#D6E5FB"/>
<stop offset="1" stop-color="#C3DBFF"/>
</linearGradient>
<linearGradient id="paint6_linear_274_5489" x1="7.50024" y1="0" x2="7.50024" y2="16" gradientUnits="userSpaceOnUse">
<stop stop-color="#D6E5FB"/>
<stop offset="1" stop-color="#C3DBFF"/>
</linearGradient>
<linearGradient id="paint7_linear_274_5489" x1="78.0002" y1="61" x2="78.0002" y2="87" gradientUnits="userSpaceOnUse">
<stop stop-color="#D6E5FB"/>
<stop offset="1" stop-color="#C3DBFF"/>
</linearGradient>
<linearGradient id="paint8_linear_274_5489" x1="33.7605" y1="49.7793" x2="33.7605" y2="96.5001" gradientUnits="userSpaceOnUse">
<stop stop-color="#D6E5FB"/>
<stop offset="1" stop-color="#C3DBFF"/>
</linearGradient>
</defs>
</svg>
