<svg width="92" height="97" viewBox="0 0 92 97" fill="none" xmlns="http://www.w3.org/2000/svg">
<path d="M12.2798 24.5C10.0642 24.5 7.94885 26.1847 7.8784 28.6963C7.76314 32.8086 8.64971 38.4196 11.7847 43.5059C14.9683 48.6709 20.3861 53.1461 28.9917 54.9473C31.2396 55.4177 33.1996 55.5745 34.8423 55.334C36.5177 55.0886 38.0598 54.3915 39.0708 53.001C40.0572 51.6441 40.2328 50.0423 40.0923 48.6162C39.9515 47.1879 39.4734 45.6844 38.8423 44.2148C36.3547 38.4229 30.5463 31.0688 25.9477 25.9717L25.7817 25.7979C24.9338 24.954 23.795 24.5 22.6235 24.5H12.2798ZM22.394 29.5C26.9176 34.5359 32.1356 41.2687 34.2485 46.1885C34.7736 47.4111 35.0457 48.3862 35.1167 49.1064C35.1879 49.829 35.0366 50.0457 35.0259 50.0605C35.0181 50.0713 34.9874 50.1139 34.8755 50.1729C34.7519 50.2379 34.5181 50.3281 34.1177 50.3867C33.2895 50.5079 31.9756 50.4631 30.0151 50.0527C22.7581 48.5337 18.5076 44.883 16.0415 40.8818C13.6881 37.0636 12.8847 32.7937 12.8686 29.5H22.394Z" fill="url(#paint0_linear_274_5490)"/>
<path d="M79.7236 24.5C81.9392 24.5 84.0546 26.1847 84.125 28.6963C84.2403 32.8086 83.3537 38.4196 80.2188 43.5059C77.0352 48.6709 71.6173 53.1461 63.0117 54.9473C60.7638 55.4177 58.8038 55.5745 57.1611 55.334C55.4858 55.0886 53.9436 54.3915 52.9326 53.001C51.9462 51.6441 51.7706 50.0423 51.9112 48.6162C52.0519 47.1879 52.53 45.6844 53.1612 44.2148C55.6487 38.4229 61.4571 31.0688 66.0557 25.9717L66.2217 25.7979C67.0696 24.954 68.2084 24.5 69.3799 24.5H79.7236ZM69.6094 29.5C65.0858 34.5359 59.8678 41.2687 57.7549 46.1885C57.2299 47.4111 56.9578 48.3862 56.8867 49.1064C56.8155 49.829 56.9668 50.0457 56.9776 50.0605C56.9854 50.0713 57.016 50.1139 57.1279 50.1729C57.2515 50.2379 57.4853 50.3281 57.8858 50.3867C58.7139 50.5079 60.0279 50.4631 61.9883 50.0527C69.2454 48.5337 73.4958 44.883 75.9619 40.8818C78.3153 37.0636 79.1188 32.7937 79.1348 29.5H69.6094Z" fill="url(#paint1_linear_274_5490)"/>
<path d="M51.5 62.5C51.9 72.9 57.6667 74.5 60.5 74L46 78L31.5 74C39.5 74 40.8333 66 40.5 62H51.5V62.5Z" fill="url(#paint2_linear_274_5490)"/>
<path d="M23.1607 25H70.1607C70.8274 37.6667 66.9607 63 46.1607 63C25.3607 63 22.1607 37.6667 23.1607 25Z" fill="url(#paint3_linear_274_5490)"/>
<path d="M46.6139 47.9453L41.6147 50.2382C40.8964 50.5677 40.0978 49.9731 40.2075 49.1905L40.9444 43.9327C40.989 43.6146 40.8781 43.2945 40.6463 43.0722L36.4205 39.0185C35.8301 38.4521 36.1327 37.455 36.9383 37.3122L42.6625 36.2975C42.9632 36.2442 43.223 36.0564 43.368 35.7877L46.1084 30.7094C46.4946 29.9937 47.5281 30.0137 47.8862 30.7438L50.3502 35.7666C50.4882 36.0479 50.7499 36.2482 51.0574 36.3079L56.3113 37.3279C57.0644 37.4741 57.3792 38.3789 56.8795 38.9609L53.3404 43.0834C53.1533 43.3014 53.069 43.5892 53.1089 43.8736L53.8541 49.1905C53.9638 49.9731 53.1651 50.5677 52.4468 50.2382L47.4477 47.9453C47.183 47.8239 46.8785 47.8239 46.6139 47.9453Z" fill="white"/>
<rect x="18" y="16" width="56" height="9" rx="3" fill="url(#paint4_linear_274_5490)"/>
<rect x="29" y="74" width="34" height="7" rx="3" fill="url(#paint5_linear_274_5490)"/>
<path d="M10.2 5.46341C9.52326 4.80319 8.89518 3.32876 8.45141 2.07785C8.27388 1.57742 7.42948 1.60467 7.28384 2.1153C6.92943 3.35793 6.41307 4.80952 5.8 5.46341C5.12717 6.18105 3.75334 6.81443 2.6472 7.24087C2.17856 7.42154 2.17946 8.18546 2.64838 8.36539C3.75633 8.79054 5.13184 9.42381 5.8 10.1463C6.421 10.8179 6.91446 12.2419 7.25585 13.5172C7.39765 14.0469 8.32319 14.0755 8.49648 13.5553C8.92466 12.2698 9.52072 10.8235 10.2 10.1463C10.917 9.43154 12.3472 8.77973 13.4607 8.34639C13.9202 8.16759 13.9216 7.43799 13.4626 7.25799C12.3518 6.82237 10.9243 6.17008 10.2 5.46341Z" fill="url(#paint6_linear_274_5490)"/>
<circle cx="78.5" cy="74" r="13" fill="url(#paint7_linear_274_5490)"/>
<path d="M78.2822 66.0869C79.2186 66.0869 79.9783 66.8459 79.9785 67.7822V72.0215H84.2178C85.1541 72.0217 85.9131 72.7814 85.9131 73.7178C85.9129 74.654 85.154 75.4129 84.2178 75.4131H79.9785V79.6523C79.9784 80.5887 79.2187 81.3477 78.2822 81.3477C77.346 81.3474 76.587 80.5886 76.5869 79.6523V75.4131H72.3477C71.4114 75.413 70.6526 74.654 70.6523 73.7178C70.6523 72.7813 71.4113 72.0216 72.3477 72.0215H76.5869V67.7822C76.5871 66.846 77.346 66.0871 78.2822 66.0869Z" fill="white"/>
<path d="M53.2538 95.2297C50.6307 95.8895 47.94 96.2977 45.2167 96.4416C42.8347 96.5674 40.4564 96.4896 38.1064 96.214L37.1015 96.0841L36.9501 96.0549C36.2122 95.8725 35.7181 95.1567 35.8271 94.3879C35.9436 93.5679 36.7023 92.9972 37.5224 93.1134C40.0073 93.4658 42.5307 93.5791 45.0585 93.4455C47.5873 93.3118 50.0863 92.9333 52.5224 92.3205L53.2538 95.2297ZM52.5224 92.3205C53.3257 92.1185 54.1406 92.606 54.3427 93.4093C54.5448 94.2127 54.0572 95.0276 53.2538 95.2297L52.5224 92.3205ZM17.6122 84.1437C19.5377 85.7796 21.6219 87.2333 23.8388 88.4787C25.7722 89.5648 27.7839 90.4798 29.8515 91.2189L30.7411 91.5246L30.8837 91.5802C31.5781 91.8905 31.9381 92.6825 31.6943 93.4201C31.4505 94.1575 30.6895 94.5788 29.9472 94.4142L29.7997 94.3732L28.8417 94.0441C26.6156 93.2483 24.45 92.2629 22.3691 91.0939C19.9832 89.7536 17.7411 88.1906 15.6699 86.4308L17.6122 84.1437ZM65.6533 86.2687C66.329 85.7897 67.2649 85.9487 67.7441 86.6242C68.2232 87.3 68.0644 88.2369 67.3886 88.716C65.162 90.2945 62.8007 91.6463 60.3398 92.759C59.5849 93.1002 58.6957 92.7648 58.3544 92.0099C58.0132 91.2551 58.3487 90.3669 59.1035 90.0256C61.3896 88.9919 63.5838 87.7358 65.6533 86.2687ZM15.498 84.3166C16.0343 83.6854 16.9809 83.6077 17.6122 84.1437L15.6699 86.4308C15.0386 85.8945 14.9619 84.9479 15.498 84.3166ZM5.43157 65.8566C6.20742 68.2756 7.21259 70.6246 8.43939 72.8693C9.66225 75.1068 11.089 77.2099 12.6943 79.1545C13.2217 79.7933 13.131 80.7394 12.4921 81.2668C11.8533 81.7939 10.9081 81.7034 10.3808 81.0646C8.65472 78.9737 7.12181 76.7125 5.80755 74.3078C4.48908 71.8953 3.40866 69.3715 2.57513 66.7726L5.43157 65.8566ZM3.54486 64.8859C4.3337 64.6329 5.17857 65.0678 5.43157 65.8566L2.57513 66.7726C2.32217 65.9839 2.75624 65.1391 3.54486 64.8859ZM2.13763 49.7814C2.9649 49.8252 3.60038 50.5313 3.55657 51.3586C3.43809 53.5964 3.50573 55.8309 3.75482 58.0392L3.87298 58.9845L3.88568 59.1379C3.91176 59.8975 3.35912 60.5688 2.58978 60.674C1.82019 60.7791 1.10699 60.2804 0.928644 59.5412L0.900324 59.3908L0.774347 58.3761C0.506734 56.0039 0.433192 53.6033 0.56048 51.1994C0.604464 50.3724 1.31064 49.7378 2.13763 49.7814Z" fill="url(#paint8_linear_274_5490)"/>
<defs>
<linearGradient id="paint0_linear_274_5490" x1="24.0017" y1="24.5" x2="24.0017" y2="55.4456" gradientUnits="userSpaceOnUse">
<stop stop-color="#E5F1FE"/>
<stop offset="1" stop-color="#D8E6FB"/>
</linearGradient>
<linearGradient id="paint1_linear_274_5490" x1="68.0017" y1="24.5" x2="68.0017" y2="55.4456" gradientUnits="userSpaceOnUse">
<stop stop-color="#E5F1FE"/>
<stop offset="1" stop-color="#D8E6FB"/>
</linearGradient>
<linearGradient id="paint2_linear_274_5490" x1="46" y1="62" x2="46" y2="78" gradientUnits="userSpaceOnUse">
<stop stop-color="#E5F1FE"/>
<stop offset="1" stop-color="#D8E6FB"/>
</linearGradient>
<linearGradient id="paint3_linear_274_5490" x1="46.615" y1="25" x2="46.615" y2="63" gradientUnits="userSpaceOnUse">
<stop stop-color="#E5F1FE"/>
<stop offset="1" stop-color="#D8E6FB"/>
</linearGradient>
<linearGradient id="paint4_linear_274_5490" x1="46" y1="16" x2="46" y2="25" gradientUnits="userSpaceOnUse">
<stop stop-color="#E5F1FE"/>
<stop offset="1" stop-color="#D8E6FB"/>
</linearGradient>
<linearGradient id="paint5_linear_274_5490" x1="46" y1="74" x2="46" y2="81" gradientUnits="userSpaceOnUse">
<stop stop-color="#E5F1FE"/>
<stop offset="1" stop-color="#D8E6FB"/>
</linearGradient>
<linearGradient id="paint6_linear_274_5490" x1="8" y1="0" x2="8" y2="16" gradientUnits="userSpaceOnUse">
<stop stop-color="#E5F1FE"/>
<stop offset="1" stop-color="#D8E6FB"/>
</linearGradient>
<linearGradient id="paint7_linear_274_5490" x1="78.5" y1="61" x2="78.5" y2="87" gradientUnits="userSpaceOnUse">
<stop stop-color="#E5F1FE"/>
<stop offset="1" stop-color="#D8E6FB"/>
</linearGradient>
<linearGradient id="paint8_linear_274_5490" x1="34.2602" y1="49.7793" x2="34.2602" y2="96.5001" gradientUnits="userSpaceOnUse">
<stop stop-color="#E5F1FE"/>
<stop offset="1" stop-color="#D8E6FB"/>
</linearGradient>
</defs>
</svg>
