<svg width="85" height="97" viewBox="0 0 85 97" fill="none" xmlns="http://www.w3.org/2000/svg">
<path d="M19 19C19 17.8954 19.8954 17 21 17H62C63.1046 17 64 17.8954 64 19V67.9846C64 69.4158 62.5406 70.3838 61.2221 69.8271L42.2779 61.8285C41.7806 61.6185 41.2194 61.6185 40.7221 61.8285L21.7779 69.8271C20.4594 70.3838 19 69.4158 19 67.9846V19Z" fill="url(#paint0_linear_273_5442)"/>
<path d="M42.0379 50.1847L34.1056 53.7542C33.3868 54.0776 32.5938 53.4811 32.7053 52.7009L33.8748 44.5139C33.9209 44.1917 33.8072 43.8673 33.5702 43.6442L26.9046 37.3707C26.3046 36.806 26.6068 35.7985 27.4187 35.6573L36.4749 34.0823C36.7741 34.0303 37.0334 33.8451 37.1798 33.579L41.5299 25.6698C41.9183 24.9635 42.94 24.9835 43.3005 25.7045L47.227 33.5575C47.3664 33.8363 47.628 34.0342 47.9343 34.0926L56.2329 35.6733C56.9922 35.8179 57.3074 36.7324 56.7984 37.3141L51.2505 43.6545C51.0586 43.8738 50.972 44.166 51.0132 44.4544L52.1912 52.7009C52.3027 53.4811 51.5097 54.0776 50.7909 53.7542L42.8586 50.1847C42.5976 50.0672 42.2989 50.0672 42.0379 50.1847Z" fill="white"/>
<path d="M75.4482 7.5C74.508 6.55972 73.6428 4.33052 73.0857 2.63842C72.9187 2.13131 72.0825 2.15782 71.9475 2.67437C71.5066 4.36181 70.8026 6.566 69.9482 7.5C69.0127 8.52282 66.9928 9.41206 65.5554 9.95134C65.0884 10.1266 65.0893 10.8706 65.5566 11.045C66.9964 11.5821 69.0193 12.4703 69.9482 13.5C70.826 14.473 71.5 16.6787 71.9257 18.4478C72.0546 18.9834 72.9643 19.0109 73.125 18.4839C73.6662 16.7081 74.4911 14.478 75.4482 13.5C76.4384 12.4882 78.5165 11.5749 79.9471 11.0288C80.4043 10.8542 80.4058 10.1416 79.9491 9.96562C78.5222 9.41582 76.4487 8.50044 75.4482 7.5Z" fill="url(#paint1_linear_273_5442)"/>
<circle cx="41.9482" cy="85.5" r="11.5" fill="url(#paint2_linear_273_5442)"/>
<path d="M42.1982 78.5C43.0267 78.5 43.6982 79.1716 43.6982 80V83.75H47.4482C48.2767 83.75 48.9482 84.4216 48.9482 85.25C48.9482 86.0784 48.2767 86.75 47.4482 86.75H43.6982V90.5C43.6982 91.3284 43.0267 92 42.1982 92C41.3698 92 40.6982 91.3284 40.6982 90.5V86.75H36.9482C36.1198 86.75 35.4482 86.0784 35.4482 85.25C35.4482 84.4216 36.1198 83.75 36.9482 83.75H40.6982V80C40.6982 79.1716 41.3698 78.5 42.1982 78.5Z" fill="white"/>
<path d="M83.4726 47.9861C84.2997 48.0255 84.9383 48.7272 84.8993 49.5544C84.5208 57.5592 81.939 65.2996 77.4433 71.9001C72.9474 78.5007 66.7158 83.7004 59.4511 86.9089C58.6934 87.2433 57.8082 86.9 57.4735 86.1423C57.1388 85.3845 57.4814 84.4985 58.2392 84.1638C64.9877 81.1832 70.7814 76.3512 74.9638 70.2107C79.1462 64.07 81.5508 56.8662 81.9032 49.4128C81.9425 48.5855 82.6451 47.947 83.4726 47.9861Z" fill="url(#paint3_linear_273_5442)"/>
<path d="M15.299 78.6347C15.7949 78.0371 16.6571 77.9227 17.2882 78.3466L17.4113 78.4384L17.8917 78.831C20.1489 80.6451 22.5952 82.2034 25.1867 83.4785L25.7443 83.747L25.879 83.8193C26.5304 84.2118 26.791 85.0417 26.4591 85.7441C26.1273 86.4461 25.3212 86.7719 24.6046 86.5185L24.462 86.4599L23.8624 86.1699C21.0731 84.7975 18.441 83.1205 16.0128 81.1689L15.4952 80.747L15.3829 80.6425C14.85 80.1004 14.8031 79.2323 15.299 78.6347Z" fill="url(#paint4_linear_273_5442)"/>
<path d="M13.8398 75.0799C14.4072 75.6834 14.3779 76.6335 13.7744 77.201C13.1708 77.7684 12.2207 77.7391 11.6533 77.1355L13.8398 75.0799ZM8.69138 68.2703C10.1616 70.7206 11.8879 73.0036 13.8398 75.0799L11.6533 77.1355C9.55428 74.9028 7.69933 72.4478 6.11911 69.8142L8.69138 68.2703ZM6.63278 67.7566C7.34307 67.3304 8.26508 67.5601 8.69138 68.2703L6.11911 69.8142C5.69297 69.104 5.9228 68.183 6.63278 67.7566Z" fill="url(#paint5_linear_273_5442)"/>
<path d="M2.99798 49.5116C3.22489 54.0738 4.22236 58.5604 5.94329 62.7773L6.29681 63.6171L6.35052 63.7616C6.58137 64.4857 6.23133 65.281 5.51946 65.5907C4.80728 65.9004 3.98626 65.614 3.61419 64.9511L3.54583 64.8134L3.16497 63.9111C1.31594 59.3803 0.245587 54.5609 0.00188516 49.6611L2.99798 49.5116ZM1.42571 48.0888C2.25291 48.0477 2.95662 48.6845 2.99798 49.5116L0.00188516 49.6611C-0.0392668 48.8337 0.598309 48.1299 1.42571 48.0888Z" fill="url(#paint6_linear_273_5442)"/>
<defs>
<linearGradient id="paint0_linear_273_5442" x1="41.5" y1="17" x2="41.5" y2="71" gradientUnits="userSpaceOnUse">
<stop stop-color="#E8F3FF"/>
<stop offset="1" stop-color="#D6E5FB"/>
</linearGradient>
<linearGradient id="paint1_linear_273_5442" x1="72.6982" y1="0.5" x2="72.6982" y2="21" gradientUnits="userSpaceOnUse">
<stop stop-color="#E8F3FF"/>
<stop offset="1" stop-color="#D6E5FB"/>
</linearGradient>
<linearGradient id="paint2_linear_273_5442" x1="41.9482" y1="74" x2="41.9482" y2="97" gradientUnits="userSpaceOnUse">
<stop stop-color="#E8F3FF"/>
<stop offset="1" stop-color="#D6E5FB"/>
</linearGradient>
<linearGradient id="paint3_linear_273_5442" x1="71.1231" y1="47.9844" x2="71.1231" y2="87.0369" gradientUnits="userSpaceOnUse">
<stop stop-color="#E8F3FF"/>
<stop offset="1" stop-color="#D6E5FB"/>
</linearGradient>
<linearGradient id="paint4_linear_273_5442" x1="20.7785" y1="78.0928" x2="20.7785" y2="86.6039" gradientUnits="userSpaceOnUse">
<stop stop-color="#E8F3FF"/>
<stop offset="1" stop-color="#D6E5FB"/>
</linearGradient>
<linearGradient id="paint5_linear_273_5442" x1="10.076" y1="67.5425" x2="10.076" y2="77.6081" gradientUnits="userSpaceOnUse">
<stop stop-color="#E8F3FF"/>
<stop offset="1" stop-color="#D6E5FB"/>
</linearGradient>
<linearGradient id="paint6_linear_273_5442" x1="3.21057" y1="48.0869" x2="3.21057" y2="65.7155" gradientUnits="userSpaceOnUse">
<stop stop-color="#E8F3FF"/>
<stop offset="1" stop-color="#D6E5FB"/>
</linearGradient>
</defs>
</svg>
