<svg width="152" height="152" viewBox="0 0 152 152" fill="none" xmlns="http://www.w3.org/2000/svg">
<circle cx="75.8747" cy="75.8752" r="63.2038" fill="url(#paint0_radial_274_5593)"/>
<path d="M97.657 133.325C98.5298 133.095 99.4521 133.56 99.7753 134.423C100.12 135.344 99.6524 136.37 98.7318 136.714L97.743 137.076C95.4273 137.9 93.0415 138.602 90.5914 139.171C87.7911 139.823 84.9897 140.281 82.202 140.558C81.2236 140.654 80.352 139.94 80.2549 138.962C80.158 137.984 80.8722 137.112 81.8505 137.015C84.4855 136.754 87.1349 136.319 89.7849 135.702C92.4347 135.086 95.0037 134.308 97.4834 133.38L97.657 133.325ZM65.8286 136.488C66.7986 136.649 67.4537 137.567 67.2926 138.537C67.1312 139.506 66.2147 140.162 65.2449 140.001L65.8286 136.488ZM123.454 114.74C124.094 114.104 125.125 114.044 125.838 114.628C126.598 115.252 126.709 116.374 126.086 117.134L125.408 117.946C121.987 121.98 118.063 125.612 113.703 128.735C112.904 129.307 111.792 129.123 111.22 128.324C110.647 127.524 110.831 126.412 111.63 125.839C116.024 122.692 119.951 118.997 123.333 114.876L123.454 114.74ZM48.132 132.695C48.5135 131.856 49.4653 131.455 50.3202 131.744L50.4903 131.811L51.4029 132.218C55.9875 134.214 60.83 135.657 65.8286 136.488L65.2449 140.001C59.9547 139.122 54.8315 137.594 49.9823 135.483L49.0161 135.053L48.8543 134.969C48.0746 134.515 47.7503 133.534 48.132 132.695ZM23.4268 111.22C24.1762 110.683 25.2003 110.811 25.7971 111.488L25.9106 111.631L26.5068 112.449C29.5211 116.513 33.0109 120.162 36.8747 123.333C37.6347 123.957 37.745 125.078 37.1213 125.838C36.4977 126.598 35.3763 126.709 34.6162 126.086C30.5296 122.732 26.8374 118.872 23.6473 114.57L23.0157 113.704L22.9171 113.551C22.4682 112.768 22.6773 111.757 23.4268 111.22ZM136.488 85.9219C136.649 84.9519 137.566 84.2958 138.536 84.457C139.506 84.6182 140.162 85.5349 140.001 86.5047C139.063 92.1476 137.387 97.6013 135.053 102.734L134.969 102.896C134.514 103.676 133.533 103.999 132.694 103.618C131.799 103.21 131.404 102.155 131.811 101.26L132.218 100.347C134.213 95.7622 135.657 90.9202 136.488 85.9219ZM12.579 90.5915C11.928 87.7913 11.4682 84.9901 11.192 82.2024C11.0951 81.2239 11.8101 80.352 12.7886 80.255C13.7669 80.1582 14.6386 80.8725 14.7357 81.8507C14.9967 84.4856 15.431 87.1353 16.0471 89.7852C16.5861 92.1038 17.2496 94.3603 18.0288 96.5493L18.3703 97.4835L18.4257 97.6571C18.6551 98.5299 18.1904 99.4522 17.3271 99.7754C16.4637 100.099 15.508 99.7077 15.108 98.8987L15.0352 98.7322L14.6749 97.7431C13.8506 95.4274 13.1487 93.0417 12.579 90.5915ZM135.702 61.9656C135.086 59.3156 134.308 56.746 133.38 54.2661L136.714 53.0187C137.696 55.6423 138.52 58.3588 139.171 61.1591C139.822 63.9594 140.281 66.7608 140.557 69.5485L140.566 69.7299C140.564 70.6323 139.879 71.4045 138.962 71.4956C137.983 71.5925 137.111 70.8775 137.014 69.899L136.908 68.9101C136.641 66.6018 136.241 64.2842 135.702 61.9656ZM134.423 51.9752C135.344 51.6308 136.37 52.0979 136.714 53.0187L133.38 54.2661C133.035 53.3453 133.502 52.3199 134.423 51.9752ZM15.2617 65.829C15.1005 66.7988 14.1837 67.4538 13.2138 67.2927C12.2439 67.1315 11.588 66.215 11.7492 65.245L15.2617 65.829ZM128.734 38.0462C129.307 38.8455 129.122 39.9574 128.323 40.53C127.524 41.1025 126.411 40.9194 125.839 40.12L128.734 38.0462ZM16.6977 49.0163C17.1047 48.1213 18.1599 47.7255 19.0549 48.1323C19.95 48.5394 20.346 49.5954 19.939 50.4905C17.7323 55.3434 16.1477 60.4973 15.2617 65.829L11.7492 65.245C12.6868 59.6021 14.3636 54.1493 16.6977 49.0163ZM114.628 25.9118C115.213 25.1991 116.236 25.0574 116.988 25.5567L117.134 25.665L117.946 26.3424C121.98 29.763 125.612 33.6864 128.734 38.0462L125.839 40.12C122.888 36.0005 119.456 32.2916 115.643 29.0576L114.876 28.4179L114.74 28.2951C114.104 27.6551 114.043 26.6243 114.628 25.9118ZM38.046 23.0161C38.8454 22.4435 39.9573 22.6278 40.5298 23.4272C41.1023 24.2265 40.9189 25.3382 40.1197 25.9107C35.7257 29.0579 31.7995 32.7536 28.4177 36.8749C27.794 37.635 26.6716 37.7454 25.9114 37.1217C25.1515 36.4979 25.0412 35.3764 25.6648 34.6164C29.2417 30.2572 33.3955 26.3469 38.046 23.0161ZM84.4568 13.2142C84.6079 12.3048 85.4234 11.671 86.3241 11.7283L86.5045 11.7496L87.561 11.934C92.8284 12.8994 97.9221 14.5097 102.734 16.6979C103.629 17.105 104.024 18.1603 103.617 19.0553C103.21 19.9503 102.155 20.3461 101.26 19.9392C96.7102 17.8703 91.8958 16.3483 86.9185 15.4361L85.9215 15.2619L85.743 15.2232C84.8725 14.9861 84.3059 14.1234 84.4568 13.2142ZM54.266 18.3707C53.3453 18.715 52.3198 18.2479 51.9751 17.3272C51.6304 16.4063 52.0974 15.38 53.0183 15.0353L54.266 18.3707ZM61.1589 12.5792C63.6091 12.0095 66.0597 11.587 68.5016 11.3051L69.5481 11.1922L69.7297 11.184C70.6322 11.1862 71.4046 11.8713 71.4954 12.7888C71.5862 13.7061 70.9635 14.53 70.0791 14.7092L69.8988 14.7361L68.9098 14.8417C66.6015 15.1081 64.2838 15.5082 61.9652 16.0472C59.3153 16.6633 56.7458 17.4425 54.266 18.3707L53.0183 15.0353C55.6419 14.0533 58.3586 13.2302 61.1589 12.5792Z" fill="#CCDEF7"/>
<g filter="url(#filter0_dd_274_5593)">
<path d="M43.8276 32.2559H92.5057C93.2532 32.2559 93.9664 32.5691 94.4721 33.1195L108.108 47.9582C108.561 48.451 108.812 49.0959 108.812 49.7652V114.154H43.8276V32.2559Z" fill="url(#paint1_linear_274_5593)"/>
</g>
<g filter="url(#filter1_d_274_5593)">
<path d="M93.0003 105.855L105.565 118.08C106.621 119.108 108.31 119.085 109.339 118.03L124.012 102.98C124.537 102.443 124.81 101.709 124.766 100.959L124.097 89.5896C124.013 88.1486 122.798 87.0357 121.355 87.0769L109.388 87.4189C108.73 87.4376 108.103 87.6983 107.626 88.1509L93.0246 102.004C91.9242 103.048 91.9131 104.797 93.0003 105.855Z" fill="white"/>
</g>
<path d="M112.054 94.5774C112.54 94.6471 112.878 95.0986 112.809 95.5852L112.191 99.9104H115.043C115.535 99.9104 115.933 100.309 115.934 100.8C115.934 101.292 115.535 101.691 115.043 101.691H111.937L111.429 105.251H114.599C115.09 105.251 115.488 105.65 115.488 106.142C115.488 106.633 115.09 107.031 114.599 107.032H111.174L110.584 111.163C110.514 111.65 110.063 111.989 109.576 111.919C109.09 111.85 108.751 111.398 108.82 110.911L109.375 107.032H105.387L104.797 111.163C104.727 111.65 104.277 111.989 103.79 111.919C103.303 111.85 102.965 111.398 103.034 110.911L103.589 107.032H100.355C99.864 107.032 99.4651 106.633 99.4648 106.142C99.4648 105.65 99.8638 105.251 100.355 105.251H103.843L104.352 101.691H100.8C100.308 101.691 99.9102 101.292 99.9102 100.8C99.9103 100.309 100.308 99.9106 100.8 99.9104H104.605L105.26 95.3333C105.329 94.8466 105.781 94.5079 106.268 94.5774C106.754 94.6471 107.092 95.0986 107.022 95.5852L106.404 99.9104H110.392L111.046 95.3333C111.115 94.8466 111.567 94.5079 112.054 94.5774ZM106.15 101.691L105.642 105.251H109.629L110.138 101.691H106.15Z" fill="url(#paint2_linear_274_5593)"/>
<circle cx="59.8513" cy="86.5579" r="3.56078" fill="#E1EBFA"/>
<circle cx="59.8513" cy="73.2048" r="3.56078" fill="#E1EBFA"/>
<circle cx="59.8513" cy="58.9617" r="3.56078" fill="#E1EBFA"/>
<rect x="66.9729" y="57.1812" width="30.2666" height="4.45098" rx="2.22549" fill="#E2EBFA"/>
<rect x="66.9729" y="70.5342" width="30.2666" height="4.45098" rx="2.22549" fill="#E2EBFA"/>
<rect x="66.9729" y="83.8872" width="24.0353" height="4.45098" rx="2.22549" fill="#E2EBFA"/>
<path d="M98.1297 48.7245H108.812L94.1239 32.701L92.7886 32.2559V43.3833C92.7886 46.3331 95.1799 48.7245 98.1297 48.7245Z" fill="url(#paint3_linear_274_5593)"/>
<path d="M38.0419 71.4243C46.6453 71.4245 53.6198 78.3991 53.62 87.0024C53.62 95.606 46.6454 102.581 38.0419 102.582C34.8863 102.582 31.9505 101.642 29.497 100.029L19.5858 109.941C18.7167 110.81 17.3075 110.81 16.4384 109.941C15.5694 109.072 15.5693 107.663 16.4384 106.793L26.1571 97.0747C23.8532 94.3588 22.4628 90.8429 22.4628 87.0024C22.463 78.3989 29.4383 71.4243 38.0419 71.4243Z" fill="url(#paint4_linear_274_5593)"/>
<circle cx="38.0415" cy="87.0029" r="11.1274" fill="white"/>
<path d="M125.913 15.7523L125.861 15.3423L125.842 15.4874C125.534 17.879 123.663 19.7682 121.275 20.0985C123.696 20.6008 125.533 22.5837 125.848 25.0365L125.861 25.1344L125.907 24.7749C126.203 22.4723 127.91 20.6021 130.177 20.0985C127.943 19.7675 126.201 17.9921 125.913 15.7523Z" fill="#D9D9D9"/>
<path d="M125.913 15.7523L125.861 15.3423L125.842 15.4874C125.534 17.879 123.663 19.7682 121.275 20.0985C123.696 20.6008 125.533 22.5837 125.848 25.0365L125.861 25.1344L125.907 24.7749C126.203 22.4723 127.91 20.6021 130.177 20.0985C127.943 19.7675 126.201 17.9921 125.913 15.7523Z" fill="#DAE8F8"/>
<path d="M23.1389 11.3136L23.0834 10.8911L23.0732 10.9692C22.6652 14.0758 20.2268 16.5241 17.1218 16.9444C20.2689 17.5835 22.6653 20.1699 23.0834 23.3538L23.1306 22.9943C23.5231 20.0058 25.7491 17.5853 28.6944 16.9444C25.7906 16.5232 23.5209 14.2228 23.1389 11.3136Z" fill="#D9D9D9"/>
<path d="M23.1389 11.3136L23.0834 10.8911L23.0732 10.9692C22.6652 14.0758 20.2268 16.5241 17.1218 16.9444C20.2689 17.5835 22.6653 20.1699 23.0834 23.3538L23.1306 22.9943C23.5231 20.0058 25.7491 17.5853 28.6944 16.9444C25.7906 16.5232 23.5209 14.2228 23.1389 11.3136Z" fill="#DAE8F8"/>
<path d="M122.841 69.1764L122.785 68.7539L122.775 68.832C122.367 71.9386 119.929 74.3869 116.824 74.8072C119.971 75.4463 122.367 78.0327 122.785 81.2166L122.833 80.8571C123.225 77.8686 125.451 75.4481 128.396 74.8072C125.492 74.386 123.223 72.0856 122.841 69.1764Z" fill="#D9D9D9"/>
<path d="M122.841 69.1764L122.785 68.7539L122.775 68.832C122.367 71.9386 119.929 74.3869 116.824 74.8072C119.971 75.4463 122.367 78.0327 122.785 81.2166L122.833 80.8571C123.225 77.8686 125.451 75.4481 128.396 74.8072C125.492 74.386 123.223 72.0856 122.841 69.1764Z" fill="#DAE8F8"/>
<defs>
<filter id="filter0_dd_274_5593" x="19.8276" y="13.2559" width="112.984" height="129.898" filterUnits="userSpaceOnUse" color-interpolation-filters="sRGB">
<feFlood flood-opacity="0" result="BackgroundImageFix"/>
<feColorMatrix in="SourceAlpha" type="matrix" values="0 0 0 0 0 0 0 0 0 0 0 0 0 0 0 0 0 0 127 0" result="hardAlpha"/>
<feOffset dy="5"/>
<feGaussianBlur stdDeviation="12"/>
<feComposite in2="hardAlpha" operator="out"/>
<feColorMatrix type="matrix" values="0 0 0 0 0.0352941 0 0 0 0 0.145098 0 0 0 0 0.25098 0 0 0 0.06 0"/>
<feBlend mode="normal" in2="BackgroundImageFix" result="effect1_dropShadow_274_5593"/>
<feColorMatrix in="SourceAlpha" type="matrix" values="0 0 0 0 0 0 0 0 0 0 0 0 0 0 0 0 0 0 127 0" result="hardAlpha"/>
<feOffset dy="1"/>
<feGaussianBlur stdDeviation="4"/>
<feComposite in2="hardAlpha" operator="out"/>
<feColorMatrix type="matrix" values="0 0 0 0 0.0352941 0 0 0 0 0.145098 0 0 0 0 0.25098 0 0 0 0.03 0"/>
<feBlend mode="normal" in2="effect1_dropShadow_274_5593" result="effect2_dropShadow_274_5593"/>
<feBlend mode="normal" in="SourceGraphic" in2="effect2_dropShadow_274_5593" result="shape"/>
</filter>
<filter id="filter1_d_274_5593" x="86.851" y="84.4051" width="43.261" height="42.4431" filterUnits="userSpaceOnUse" color-interpolation-filters="sRGB">
<feFlood flood-opacity="0" result="BackgroundImageFix"/>
<feColorMatrix in="SourceAlpha" type="matrix" values="0 0 0 0 0 0 0 0 0 0 0 0 0 0 0 0 0 0 127 0" result="hardAlpha"/>
<feOffset dy="2.67059"/>
<feGaussianBlur stdDeviation="2.67059"/>
<feColorMatrix type="matrix" values="0 0 0 0 0.909804 0 0 0 0 0.941176 0 0 0 0 1 0 0 0 1 0"/>
<feBlend mode="normal" in2="BackgroundImageFix" result="effect1_dropShadow_274_5593"/>
<feBlend mode="normal" in="SourceGraphic" in2="effect1_dropShadow_274_5593" result="shape"/>
</filter>
<radialGradient id="paint0_radial_274_5593" cx="0" cy="0" r="1" gradientUnits="userSpaceOnUse" gradientTransform="translate(75.8747 75.8752) rotate(90) scale(63.2038)">
<stop offset="0.33" stop-color="#C7DDFE"/>
<stop offset="1" stop-color="white"/>
</radialGradient>
<linearGradient id="paint1_linear_274_5593" x1="76.3198" y1="32.2559" x2="76.3198" y2="114.154" gradientUnits="userSpaceOnUse">
<stop stop-color="#FEFEFD"/>
<stop offset="1" stop-color="#EFF4FE"/>
</linearGradient>
<linearGradient id="paint2_linear_274_5593" x1="107.699" y1="94.5684" x2="107.699" y2="111.928" gradientUnits="userSpaceOnUse">
<stop stop-color="#DAE8F8"/>
<stop offset="1" stop-color="#CCDEF7"/>
</linearGradient>
<linearGradient id="paint3_linear_274_5593" x1="101.691" y1="41.1578" x2="92.7886" y2="48.2794" gradientUnits="userSpaceOnUse">
<stop stop-color="#CCDEF7"/>
<stop offset="1" stop-color="#E7F0FF"/>
</linearGradient>
<linearGradient id="paint4_linear_274_5593" x1="36.8052" y1="92.5964" x2="15.6674" y2="109.384" gradientUnits="userSpaceOnUse">
<stop stop-color="#D9E7FC"/>
<stop offset="1" stop-color="#E7F0FF"/>
</linearGradient>
</defs>
</svg>
