<svg width="94" height="94" viewBox="0 0 94 94" fill="none" xmlns="http://www.w3.org/2000/svg">
<path d="M31 21.5H38.5011C40.1579 21.5 41.5 22.8431 41.5 24.5V56.5C41.5 58.1569 40.1569 59.5 38.5 59.5H31C21.2735 59.5 18.0779 51.3364 17.5685 46.4616C17.5125 45.9261 17.0735 45.5 16.5351 45.5H12.5C10.8431 45.5 9.5 44.1569 9.5 42.5V38C9.5 36.3431 10.8431 35 12.5 35H16.5C17.0523 35 17.4953 34.5504 17.5473 34.0006C18.2124 26.974 25.7466 21.5 31 21.5Z" fill="url(#paint0_linear_274_5517)"/>
<path d="M63.5 21.5H55.9989C54.3421 21.5 53 22.8431 53 24.5V56.5C53 58.1569 54.3431 59.5 56 59.5H63.5C73.2265 59.5 76.4221 51.3364 76.9315 46.4616C76.9875 45.9261 77.4265 45.5 77.9649 45.5H82C83.6569 45.5 85 44.1569 85 42.5V38C85 36.3431 83.6569 35 82 35H78C77.4477 35 77.0047 34.5504 76.9527 34.0006C76.2876 26.974 68.7534 21.5 63.5 21.5Z" fill="url(#paint1_linear_274_5517)"/>
<path d="M58.2305 89.2441C58.9832 89.1374 59.7093 89.6162 59.8955 90.3701C60.0939 91.1742 59.603 91.9869 58.7989 92.1855C56.46 92.7633 54.0715 93.1547 51.6553 93.3516C49.2404 93.5483 46.8219 93.5487 44.4229 93.3574C43.5972 93.2914 42.9811 92.5689 43.0469 91.7432C43.1086 90.9691 43.7479 90.3789 44.5079 90.3623L44.6612 90.3672L45.502 90.4258C47.4649 90.5427 49.4399 90.522 51.4121 90.3613C53.6671 90.1776 55.8961 89.8126 58.0791 89.2734L58.2305 89.2441ZM28.834 87.585C29.1723 86.8288 30.0593 86.4899 30.8155 86.8281C32.6231 87.6367 34.4783 88.3145 36.3672 88.8584L37.1787 89.083L37.3252 89.1299C38.0362 89.3988 38.4419 90.1676 38.2422 90.918C38.029 91.7185 37.2068 92.1947 36.4063 91.9814C34.373 91.4398 32.374 90.7544 30.4239 89.9287L29.5909 89.5664L29.4541 89.4971C28.7948 89.1182 28.5169 88.294 28.834 87.585ZM76.5401 79.3623C77.1507 78.8024 78.0993 78.8435 78.6592 79.4541C79.219 80.0647 79.178 81.0134 78.5674 81.5732C76.7831 83.2094 74.8673 84.7055 72.835 86.0439C70.809 87.3782 68.6878 88.5423 66.4932 89.5293C65.7377 89.8691 64.8496 89.5319 64.5098 88.7764C64.17 88.0208 64.5072 87.1327 65.2627 86.793C67.3118 85.8715 69.2924 84.7842 71.1846 83.5381C73.0828 82.288 74.8729 80.891 76.5401 79.3623ZM88.0987 61.75C88.3705 60.9678 89.2245 60.5538 90.0069 60.8252C90.7895 61.0969 91.2044 61.9518 90.9327 62.7344C90.1358 65.0296 89.1572 67.2648 88.003 69.418C86.852 71.565 85.5376 73.6087 84.0752 75.5322C83.5739 76.1917 82.6332 76.3197 81.9737 75.8184C81.3142 75.317 81.1862 74.3763 81.6875 73.7168L82.1934 73.0371C83.3589 71.4396 84.4178 69.7575 85.3594 68.001C86.4387 65.9877 87.3534 63.8966 88.0987 61.75ZM90.5 47.5C90.5 46.6716 91.1716 46 92 46C92.8285 46 93.5 46.6716 93.5 47.5C93.5 49.9442 93.3075 52.3761 92.9278 54.7734C92.7982 55.5917 92.0292 56.1501 91.211 56.0205C90.393 55.8907 89.8353 55.1227 89.9649 54.3047C90.3201 52.062 90.5 49.7867 90.5 47.5Z" fill="url(#paint2_linear_274_5517)"/>
<circle cx="14" cy="76" r="14" fill="url(#paint3_linear_274_5517)"/>
<path d="M14.2168 68C15.2253 68 16.043 68.8177 16.043 69.8262V74.3906H20.6084C21.6167 74.3907 22.4344 75.2085 22.4346 76.2168C22.4346 77.2253 21.6169 78.0429 20.6084 78.043H16.043V82.6084C16.043 83.6169 15.2253 84.4346 14.2168 84.4346C13.2084 84.4345 12.3906 83.6168 12.3906 82.6084V78.043H7.8252C6.8169 78.0427 6 77.2252 6 76.2168C6.00021 75.2086 6.81702 74.3909 7.8252 74.3906H12.3906V69.8262C12.3906 68.8177 13.2084 68.0001 14.2168 68Z" fill="white"/>
<path d="M47 47.5C47 46.1193 48.1193 45 49.5 45H53V50H49.5C48.1193 50 47 48.8807 47 47.5V47.5Z" fill="#B4D0FE"/>
<path d="M47 32.5C47 31.1193 48.1193 30 49.5 30H53V35H49.5C48.1193 35 47 33.8807 47 32.5V32.5Z" fill="#B4D0FE"/>
<path d="M81.5143 6.4878C80.6884 5.6506 79.9259 3.71091 79.4156 2.1692C79.2474 1.66086 78.4008 1.68708 78.2642 2.20483C77.8589 3.74053 77.2356 5.65672 76.4857 6.4878C75.6547 7.40884 73.8878 8.21301 72.5827 8.71637C72.1191 8.89518 72.1201 9.63865 72.584 9.81662C73.8912 10.3181 75.6605 11.1216 76.4857 12.0488C77.2524 12.9103 77.849 14.8146 78.2402 16.4125C78.3715 16.949 79.2941 16.9771 79.4567 16.4493C79.9513 14.8432 80.6776 12.9155 81.5143 12.0488C82.3958 11.1357 84.2203 10.3092 85.5231 9.79901C85.9769 9.62129 85.9784 8.91112 85.5251 8.73204C84.2256 8.21869 82.4049 7.39062 81.5143 6.4878Z" fill="url(#paint4_linear_274_5517)"/>
<defs>
<linearGradient id="paint0_linear_274_5517" x1="25.5" y1="21.5" x2="25.5" y2="59.5" gradientUnits="userSpaceOnUse">
<stop stop-color="#D6E5FB"/>
<stop offset="1" stop-color="#C4DCFF"/>
</linearGradient>
<linearGradient id="paint1_linear_274_5517" x1="69" y1="21.5" x2="69" y2="59.5" gradientUnits="userSpaceOnUse">
<stop stop-color="#D6E5FB"/>
<stop offset="1" stop-color="#C4DCFF"/>
</linearGradient>
<linearGradient id="paint2_linear_274_5517" x1="61.1015" y1="46" x2="61.1015" y2="93.5" gradientUnits="userSpaceOnUse">
<stop stop-color="#D6E5FB"/>
<stop offset="1" stop-color="#C4DCFF"/>
</linearGradient>
<linearGradient id="paint3_linear_274_5517" x1="14" y1="62" x2="14" y2="90" gradientUnits="userSpaceOnUse">
<stop stop-color="#D6E5FB"/>
<stop offset="1" stop-color="#C4DCFF"/>
</linearGradient>
<linearGradient id="paint4_linear_274_5517" x1="79" y1="0" x2="79" y2="19" gradientUnits="userSpaceOnUse">
<stop stop-color="#D6E5FB"/>
<stop offset="1" stop-color="#C4DCFF"/>
</linearGradient>
</defs>
</svg>
