<svg width="186" height="151" viewBox="0 0 186 151" fill="none" xmlns="http://www.w3.org/2000/svg">
<circle cx="93.8006" cy="70.8506" r="63.0728" fill="url(#paint0_radial_274_5619)"/>
<rect x="137.466" y="86.2144" width="47.7089" height="37.1968" rx="4.85175" fill="#F0F6FE"/>
<path d="M174.663 94.3008C175.109 94.3008 175.471 94.6628 175.471 95.1094V116.134H177.897C178.344 116.134 178.706 116.496 178.706 116.942C178.706 117.389 178.344 117.751 177.897 117.751H144.744C144.297 117.751 143.935 117.389 143.935 116.942C143.935 116.496 144.297 116.134 144.744 116.134H147.978V104.812C147.978 104.366 148.34 104.004 148.787 104.004H153.638C154.085 104.004 154.447 104.366 154.447 104.812V116.134H158.491V99.9609C158.491 99.5143 158.853 99.1523 159.3 99.1523H164.151C164.598 99.1524 164.96 99.5144 164.96 99.9609V116.134H169.003V95.1094C169.003 94.6628 169.365 94.3008 169.811 94.3008H174.663Z" fill="#D3E3F8"/>
<path d="M94.6089 123.411C100.861 123.411 105.93 128.479 105.93 134.731C105.93 140.984 97.0348 150.5 94.6089 150.5C92.1824 150.499 83.2886 140.983 83.2886 134.731C83.2888 128.48 88.357 123.411 94.6089 123.411Z" fill="#CCDEF7"/>
<circle cx="94.6093" cy="134.732" r="4.85175" fill="white"/>
<path d="M129.799 93.2449L94.6091 110.473V68.8289L133.423 49.4219V87.4348C133.423 89.9046 132.017 92.1589 129.799 93.2449Z" fill="url(#paint1_linear_274_5619)"/>
<path d="M94.6092 110.473V68.8289L55.7952 48.6133V87.9393C55.7952 90.1004 57.0257 92.0729 58.9666 93.0231L94.6092 110.473Z" fill="url(#paint2_linear_274_5619)"/>
<path d="M133.423 49.826L94.6092 68.8287L54.9866 48.2087L89.6043 31.4352C92.5087 30.0279 95.8964 30.0316 98.7966 31.4475C110.834 37.3245 128.888 46.1434 130.593 46.9958C132.534 47.9662 133.288 49.2869 133.423 49.826Z" fill="white"/>
<path d="M69.5417 56.4065V67.9248C69.5417 68.2311 69.7148 68.5111 69.9887 68.6481L78.075 72.6912C78.6127 72.96 79.2453 72.5691 79.2453 71.9679V61.2378C79.2453 60.9339 79.4156 60.6557 79.6863 60.5175L118.059 40.9313L110.377 36.8882L70.0092 55.6733C69.7241 55.806 69.5417 56.092 69.5417 56.4065Z" fill="#F5FBFE"/>
<path d="M69.5417 57.199V67.9246C69.5417 68.2308 69.7148 68.5108 69.9887 68.6478L78.075 72.6909C78.6127 72.9598 79.2453 72.5688 79.2453 71.9677V61.2421C79.2453 60.9359 79.0722 60.6559 78.7983 60.5189L70.712 56.4758C70.1743 56.2069 69.5417 56.5979 69.5417 57.199Z" fill="#E4EEFC"/>
<path d="M69.8444 125.84C70.7389 126.213 71.1627 127.248 70.7918 128.149C70.4207 129.051 69.3952 129.479 68.5008 129.105L69.8444 125.84ZM53.7146 118.195C54.2677 117.47 55.27 117.296 56.0257 117.767L56.1738 117.871L56.9586 118.469C60.9114 121.429 65.2347 123.913 69.8444 125.84L68.5008 129.105C63.6222 127.066 59.0486 124.437 54.8678 121.306L54.0368 120.673L53.9002 120.556C53.2536 119.941 53.1613 118.92 53.7146 118.195ZM34.8052 91.8808C35.6438 91.5305 36.5976 91.8844 37.0192 92.6727L37.0962 92.8365L37.4857 93.7612C39.4708 98.368 42.0045 102.68 45.0038 106.614C45.5938 107.388 45.4495 108.497 44.6817 109.091C43.9139 109.686 42.8135 109.541 42.2234 108.768C39.0511 104.607 36.3703 100.045 34.2695 95.1695L33.8569 94.1896L33.7963 94.02C33.5404 93.1621 33.9665 92.2313 34.8052 91.8808ZM29 69.5C29 66.6464 29.1837 63.835 29.5405 61.0779C29.6658 60.1101 30.5461 59.4279 31.5064 59.5542C32.4664 59.6805 33.1433 60.5669 33.0183 61.5344C32.681 64.1405 32.5066 66.7996 32.5066 69.5C32.5066 71.8626 32.6398 74.1932 32.899 76.4847L33.0183 77.4646L33.0327 77.6449C33.0581 78.5402 32.4066 79.3274 31.5064 79.4458C30.6061 79.5642 29.7765 78.9715 29.5732 78.0995L29.5405 77.9221L29.4155 76.885C29.1412 74.4609 29 71.9967 29 69.5ZM153.492 69.5C153.492 66.7996 153.319 64.1405 152.982 61.5344L156.459 61.0779C156.815 63.8351 157 66.6464 157 69.5C157 72.3535 156.815 75.165 156.459 77.9221L156.427 78.0995C156.224 78.9714 155.394 79.564 154.494 79.4458C153.533 79.3196 152.856 78.4324 152.982 77.4646L153.1 76.4847C153.359 74.1932 153.492 71.8626 153.492 69.5ZM154.494 59.5542C155.454 59.4281 156.333 60.1102 156.459 61.0779L152.982 61.5344C152.857 60.5668 153.533 59.6804 154.494 59.5542ZM37.0962 46.1635C36.7252 47.0649 35.6997 47.492 34.8052 47.1183C33.9107 46.7444 33.486 45.711 33.8569 44.8094L37.0962 46.1635ZM152.143 44.8094C152.514 45.7108 152.089 46.7443 151.195 47.1183C150.3 47.4921 149.274 47.065 148.903 46.1635L152.143 44.8094ZM42.2234 30.2324C42.8134 29.4587 43.9138 29.3132 44.6817 29.9077C45.4495 30.5024 45.5939 31.6123 45.0038 32.3861C41.8047 36.5818 39.1351 41.2082 37.0962 46.1635L33.8569 44.8094C36.0149 39.5648 38.8396 34.6702 42.2234 30.2324ZM141.317 29.9077C142.037 29.3501 143.05 29.4431 143.66 30.0947L143.777 30.2324L144.405 31.0698C147.511 35.2834 150.12 39.8927 152.143 44.8094L148.903 46.1635C146.991 41.5178 144.526 37.1607 141.59 33.1771L140.996 32.3861L140.893 32.2369C140.426 31.4752 140.598 30.4651 141.317 29.9077ZM68.5008 9.89488C69.3954 9.52104 70.4208 9.94908 70.7918 10.8506C71.1626 11.752 70.7388 12.7855 69.8444 13.1594C64.9275 15.2143 60.337 17.9047 56.1738 21.1289C55.406 21.7236 54.3047 21.578 53.7146 20.8042C53.1247 20.0303 53.2691 18.9213 54.0368 18.3267C58.4402 14.9164 63.2969 12.0697 68.5008 9.89488ZM115.207 10.8506C115.555 10.0053 116.479 9.57591 117.33 9.83382L117.498 9.89488L118.471 10.3107C123.308 12.4279 127.835 15.1296 131.963 18.3267C132.731 18.9214 132.874 20.0304 132.284 20.8042C131.694 21.578 130.594 21.7234 129.826 21.1289C125.923 18.1061 121.644 15.5526 117.073 13.552L116.156 13.1594L115.993 13.0819C115.211 12.657 114.86 11.6957 115.207 10.8506ZM85.0962 9.04967C84.1361 9.17564 83.2566 8.49348 83.1313 7.52595C83.006 6.5582 83.6829 5.67097 84.6432 5.54474L85.0962 9.04967ZM93 5C95.4774 5.00001 97.9225 5.14233 100.328 5.41873L101.357 5.54474L101.533 5.57769C102.398 5.7826 102.986 6.61861 102.869 7.52595C102.751 8.4332 101.97 9.08978 101.082 9.06421L100.903 9.04967L99.9305 8.92948C97.6568 8.6682 95.3443 8.53402 93 8.53401C90.3206 8.53401 87.682 8.70973 85.0962 9.04967L84.6432 5.54474C87.379 5.1851 90.1686 5 93 5Z" fill="#CCDEF7"/>
<path d="M133.366 113.709C134.035 113.677 134.603 114.194 134.635 114.863L133.496 124.567C133.528 125.236 133.011 125.805 132.342 125.837C131.673 125.869 131.104 125.352 131.072 124.682L132.342 117.724C129.24 120.597 125.435 123.139 121.793 125.213C117.32 127.76 113.014 129.648 110.392 130.613C109.764 130.845 109.067 130.523 108.835 129.895C108.604 129.266 108.925 128.569 109.554 128.338C112.053 127.417 116.238 125.584 120.593 123.104C124.01 121.158 127.482 118.838 130.321 116.282L122.577 116.651C121.908 116.683 121.339 116.167 121.307 115.498C121.275 114.828 121.793 114.26 122.462 114.228L133.366 113.709Z" fill="#CCDEF7"/>
<path d="M0 32.8452H57.4124V65.1902C57.4124 68.3164 54.8782 70.8506 51.752 70.8506H5.66038C2.53424 70.8506 0 68.3164 0 65.1902V32.8452Z" fill="url(#paint3_linear_274_5619)"/>
<path d="M0 32.8452H57.4124V32.0366C57.4124 28.9104 54.8782 26.3762 51.752 26.3762H5.66038C2.53424 26.3762 0 28.9104 0 32.0366V32.8452Z" fill="url(#paint4_linear_274_5619)"/>
<rect x="8.89502" y="63.5728" width="39.6226" height="1.61725" rx="0.808625" fill="#D2E0F5"/>
<path d="M47.6758 38.634C48.0514 38.3925 48.5517 38.501 48.7932 38.8764C49.0347 39.252 48.9262 39.7522 48.5508 39.9938L37.23 47.2714C37.0917 47.3603 36.9293 47.405 36.7649 47.3993L25.3652 47.0061L9.83944 60.9399C9.50709 61.2381 8.99586 61.2106 8.69757 60.8783C8.39931 60.5459 8.42686 60.0347 8.75916 59.7364L24.5274 45.5855L24.5882 45.5365C24.7341 45.429 24.9124 45.3731 25.0951 45.3793L36.5675 45.7742L47.6758 38.634Z" fill="#D2E0F5"/>
<path d="M46.1445 0.897003L46.0916 0.5C45.6143 4.07977 42.798 6.89601 39.2183 7.37332L39.6171 7.45309C43.0062 8.1309 45.5898 10.8877 46.0466 14.3136L46.0916 14.6509L46.1476 14.2311C46.599 10.8455 49.1289 8.10868 52.4686 7.39303L52.5606 7.37332C49.2128 6.89507 46.5915 4.24906 46.1445 0.897003Z" fill="#D9D9D9"/>
<path d="M46.1445 0.897003L46.0916 0.5C45.6143 4.07977 42.798 6.89601 39.2183 7.37332L39.6171 7.45309C43.0062 8.1309 45.5898 10.8877 46.0466 14.3136L46.0916 14.6509L46.1476 14.2311C46.599 10.8455 49.1289 8.10868 52.4686 7.39303L52.5606 7.37332C49.2128 6.89507 46.5915 4.24906 46.1445 0.897003Z" fill="#DAE8F8"/>
<path d="M134.285 134.32L134.232 133.923C133.755 137.503 130.938 140.319 127.359 140.797L127.758 140.876C131.147 141.554 133.73 144.311 134.187 147.737L134.232 148.074L134.288 147.654C134.739 144.269 137.269 141.532 140.609 140.816L140.701 140.797C137.353 140.318 134.732 137.672 134.285 134.32Z" fill="#D9D9D9"/>
<path d="M134.285 134.32L134.232 133.923C133.755 137.503 130.938 140.319 127.359 140.797L127.758 140.876C131.147 141.554 133.73 144.311 134.187 147.737L134.232 148.074L134.288 147.654C134.739 144.269 137.269 141.532 140.609 140.816L140.701 140.797C137.353 140.318 134.732 137.672 134.285 134.32Z" fill="#DAE8F8"/>
<defs>
<radialGradient id="paint0_radial_274_5619" cx="0" cy="0" r="1" gradientUnits="userSpaceOnUse" gradientTransform="translate(93.8006 70.8506) rotate(90) scale(63.0728)">
<stop offset="0.5" stop-color="#E2ECFE"/>
<stop offset="1" stop-color="white"/>
</radialGradient>
<linearGradient id="paint1_linear_274_5619" x1="133.423" y1="91.0661" x2="94.6091" y2="68.4246" gradientUnits="userSpaceOnUse">
<stop stop-color="#ECF3FD"/>
<stop offset="1" stop-color="#EFF3FE"/>
</linearGradient>
<linearGradient id="paint2_linear_274_5619" x1="55.7952" y1="91.8747" x2="94.6092" y2="68.4246" gradientUnits="userSpaceOnUse">
<stop stop-color="#EAF1FE"/>
<stop offset="1" stop-color="#F7F9FE"/>
</linearGradient>
<linearGradient id="paint3_linear_274_5619" x1="0" y1="51.8479" x2="57.4124" y2="51.8479" gradientUnits="userSpaceOnUse">
<stop stop-color="#F8FBFF"/>
<stop offset="1" stop-color="#E3EEFD"/>
</linearGradient>
<linearGradient id="paint4_linear_274_5619" x1="0" y1="29.6107" x2="57.4124" y2="29.6107" gradientUnits="userSpaceOnUse">
<stop stop-color="#F0F5FF"/>
<stop offset="1" stop-color="#DEE9FB"/>
</linearGradient>
</defs>
</svg>
