<svg width="65" height="76" viewBox="0 0 65 76" fill="none" xmlns="http://www.w3.org/2000/svg">
<mask id="mask0_180_85001" style="mask-type:alpha" maskUnits="userSpaceOnUse" x="0" y="0" width="65" height="76">
<path d="M56.5886 0.5H8.15217V31.5786L0.834762 36.9147C0.310393 37.2971 0.00101494 37.9076 0.00272956 38.5566L0.0907277 71.8638C0.0960375 73.8736 1.72675 75.5 3.73651 75.5H61.2706C63.2841 75.5 64.9164 73.8677 64.9164 71.8542V38.5193C64.9164 37.8913 64.6251 37.2988 64.1277 36.9153L56.5886 31.102V0.5Z" fill="#D9D9D9"/>
</mask>
<g mask="url(#mask0_180_85001)">
<path d="M20.0167 19.3125L-0.652222 37.473L1.70564 43.4931L35.4682 62.7071L63.1103 42.3894L65.9699 37.5734L54.9832 28.6436L20.0167 19.3125Z" fill="url(#paint0_linear_180_85001)"/>
<rect x="8.12692" y="0.550293" width="48.9144" height="61.0671" rx="3.44325" fill="url(#paint1_linear_180_85001)"/>
<rect x="12.178" y="21.2095" width="40.9139" height="10.9374" rx="2.02544" fill="url(#paint2_linear_180_85001)"/>
<rect x="12.178" y="34.375" width="40.9139" height="10.9374" rx="2.02544" fill="url(#paint3_linear_180_85001)"/>
<rect x="12.178" y="47.5405" width="40.9139" height="10.9374" rx="2.02544" fill="url(#paint4_linear_180_85001)"/>
<rect x="25.8496" y="25.6655" width="13.1654" height="2.22799" rx="1.11399" fill="#1C59DB"/>
<rect x="25.8496" y="38.8311" width="9.21576" height="2.22799" rx="1.11399" fill="#1C59DB"/>
<rect x="25.8496" y="51.9966" width="9.21576" height="2.22799" rx="1.11399" fill="#1C59DB"/>
<path d="M18.4568 27.5897C17.9877 28.564 16.5195 29.3159 15.6555 29.6952C15.4966 29.765 15.4198 29.9473 15.4843 30.1085C15.5356 30.2368 15.6644 30.3183 15.8012 30.299C17.3454 30.0808 18.8722 28.8726 19.4189 28.1973L20.1824 28.91C20.4902 29.1972 20.9938 29.0052 21.0322 28.586L21.3646 24.9545C21.4426 24.103 20.4107 23.6225 19.8092 24.2303L17.2712 26.7944C17.0334 27.0347 17.1772 27.4434 17.5131 27.4818L18.4568 27.5897Z" fill="#1C59DB"/>
<path d="M18.4568 52.7052C17.9877 51.731 16.5195 50.979 15.6555 50.5997C15.4966 50.5299 15.4198 50.3476 15.4843 50.1865C15.5356 50.0581 15.6644 49.9766 15.8012 49.9959C17.3454 50.2141 18.8722 51.4223 19.4189 52.0976L20.1824 51.385C20.4902 51.0977 20.9938 51.2897 21.0322 51.709L21.3646 55.3404C21.4426 56.1919 20.4107 56.6724 19.8092 56.0647L17.2712 53.5005C17.0334 53.2602 17.1772 52.8515 17.5131 52.8131L18.4568 52.7052Z" fill="#1C59DB"/>
<path d="M44.7369 29.2605V25.6393L43.3221 27.0541C43.2034 27.1728 43.0111 27.1728 42.8925 27.0541C42.7738 26.9355 42.7738 26.7432 42.8925 26.6245L44.8259 24.691C44.9446 24.5724 45.1369 24.5724 45.2555 24.691L47.189 26.6245C47.3076 26.7432 47.3076 26.9355 47.189 27.0541C47.0704 27.1728 46.878 27.1728 46.7594 27.0541L45.3445 25.6393V29.2605C45.3445 29.4283 45.2085 29.5644 45.0407 29.5644C44.8729 29.5644 44.7369 29.4283 44.7369 29.2605Z" fill="white"/>
<path d="M45.3445 38.0715L45.3445 41.6928L46.7594 40.2779C46.878 40.1593 47.0704 40.1593 47.189 40.2779C47.3076 40.3966 47.3076 40.5889 47.189 40.7075L45.2555 42.641C45.1369 42.7596 44.9446 42.7596 44.8259 42.641L42.8924 40.7075C42.7738 40.5889 42.7738 40.3966 42.8924 40.2779C43.0111 40.1593 43.2034 40.1593 43.3221 40.2779L44.7369 41.6928L44.7369 38.0715C44.7369 37.9037 44.8729 37.7677 45.0407 37.7677C45.2085 37.7677 45.3445 37.9037 45.3445 38.0715Z" fill="white"/>
<path d="M45.3445 51.237L45.3445 54.8583L46.7594 53.4434C46.878 53.3248 47.0704 53.3248 47.189 53.4434C47.3076 53.5621 47.3076 53.7544 47.189 53.8731L45.2555 55.8065C45.1369 55.9252 44.9446 55.9252 44.8259 55.8065L42.8924 53.8731C42.7738 53.7544 42.7738 53.5621 42.8924 53.4434C43.0111 53.3248 43.2034 53.3248 43.3221 53.4434L44.7369 54.8583L44.7369 51.237C44.7369 51.0692 44.8729 50.9332 45.0407 50.9332C45.2085 50.9332 45.3445 51.0692 45.3445 51.237Z" fill="white"/>
<path d="M15.319 39.6646C17.1922 37.3105 20.799 37.3302 22.7028 39.6597C22.7659 39.737 22.7672 39.8507 22.7057 39.9292C20.8291 42.3244 17.1616 42.3435 15.3161 39.9243C15.2573 39.8474 15.2587 39.7403 15.319 39.6646ZM18.9127 38.5279C18.2136 38.5279 17.6471 39.0944 17.6471 39.7935C17.6472 40.4926 18.2137 41.0591 18.9127 41.0591C19.6118 41.0591 20.1783 40.4925 20.1784 39.7935C20.1784 39.0944 19.6119 38.5279 18.9127 38.5279Z" fill="#1C59DB"/>
<path d="M46.9407 17.484C46.5907 17.484 46.2734 17.4257 45.9887 17.309C45.7087 17.1877 45.4871 17.0103 45.3237 16.777C45.1604 16.5437 45.0717 16.2567 45.0577 15.916H46.1777C46.1824 16.0513 46.2174 16.1703 46.2827 16.273C46.3481 16.3757 46.4367 16.4573 46.5487 16.518C46.6607 16.574 46.7914 16.602 46.9407 16.602C47.0667 16.602 47.1764 16.5833 47.2697 16.546C47.3677 16.504 47.4447 16.4457 47.5007 16.371C47.5567 16.2917 47.5847 16.1937 47.5847 16.077C47.5847 15.9557 47.5521 15.853 47.4867 15.769C47.4214 15.6803 47.3327 15.6057 47.2207 15.545C47.1087 15.4797 46.9781 15.4213 46.8287 15.37C46.6841 15.314 46.5277 15.2603 46.3597 15.209C45.9724 15.083 45.6737 14.9127 45.4637 14.698C45.2584 14.4833 45.1557 14.1963 45.1557 13.837C45.1557 13.5383 45.2281 13.284 45.3727 13.074C45.5221 12.8593 45.7251 12.696 45.9817 12.584C46.2384 12.472 46.5301 12.416 46.8567 12.416C47.1927 12.416 47.4891 12.4743 47.7457 12.591C48.0024 12.703 48.2054 12.8687 48.3547 13.088C48.5041 13.3027 48.5834 13.5593 48.5927 13.858H47.4657C47.4611 13.7553 47.4307 13.662 47.3747 13.578C47.3234 13.494 47.2511 13.4263 47.1577 13.375C47.0691 13.3237 46.9641 13.298 46.8427 13.298C46.7354 13.2933 46.6374 13.3097 46.5487 13.347C46.4647 13.3797 46.3947 13.4333 46.3387 13.508C46.2874 13.578 46.2617 13.6667 46.2617 13.774C46.2617 13.8767 46.2874 13.9677 46.3387 14.047C46.3947 14.1217 46.4694 14.187 46.5627 14.243C46.6607 14.2943 46.7727 14.3433 46.8987 14.39C47.0294 14.4367 47.1717 14.4833 47.3257 14.53C47.5731 14.614 47.7994 14.7143 48.0047 14.831C48.2147 14.943 48.3827 15.0923 48.5087 15.279C48.6394 15.461 48.7047 15.7037 48.7047 16.007C48.7047 16.273 48.6347 16.518 48.4947 16.742C48.3594 16.966 48.1611 17.1457 47.8997 17.281C47.6431 17.4163 47.3234 17.484 46.9407 17.484Z" fill="white"/>
<path d="M42.1213 17.4V13.347H40.7003V12.5H44.5923V13.347H43.1713V17.4H42.1213Z" fill="white"/>
<path d="M39.0017 17.4V12.5H40.0517V17.4H39.0017ZM35.9287 17.4V12.5H36.9787V17.4H35.9287ZM36.8457 15.321V14.474H39.1697V15.321H36.8457Z" fill="white"/>
<path d="M32.6093 17.484C32.1426 17.484 31.7343 17.3813 31.3843 17.176C31.0389 16.966 30.7706 16.6743 30.5793 16.301C30.3879 15.9277 30.2923 15.4913 30.2923 14.992C30.2923 14.488 30.3903 14.0423 30.5863 13.655C30.7869 13.2677 31.0739 12.9643 31.4473 12.745C31.8206 12.5257 32.2663 12.416 32.7843 12.416C33.3676 12.416 33.8506 12.556 34.2333 12.836C34.6206 13.116 34.8703 13.5033 34.9823 13.998H33.8133C33.7433 13.802 33.6196 13.6503 33.4423 13.543C33.2696 13.4357 33.0479 13.382 32.7773 13.382C32.4693 13.382 32.2103 13.4497 32.0003 13.585C31.7903 13.7157 31.6316 13.9023 31.5243 14.145C31.4169 14.383 31.3633 14.6653 31.3633 14.992C31.3633 15.328 31.4169 15.6127 31.5243 15.846C31.6316 16.0793 31.7879 16.2567 31.9933 16.378C32.1986 16.4947 32.4413 16.553 32.7213 16.553C33.1226 16.553 33.4259 16.448 33.6313 16.238C33.8413 16.028 33.9696 15.7643 34.0163 15.447H32.8753V14.663H35.0663V17.4H34.1003L34.0163 16.833C33.9183 16.973 33.8016 17.092 33.6663 17.19C33.5356 17.288 33.3816 17.3603 33.2043 17.407C33.0316 17.4583 32.8333 17.484 32.6093 17.484Z" fill="white"/>
<path d="M28.457 17.4V12.5H29.507V17.4H28.457Z" fill="white"/>
<path d="M25.8997 17.484C25.5497 17.484 25.2324 17.4257 24.9477 17.309C24.6677 17.1877 24.4461 17.0103 24.2827 16.777C24.1194 16.5437 24.0307 16.2567 24.0167 15.916H25.1367C25.1414 16.0513 25.1764 16.1703 25.2417 16.273C25.3071 16.3757 25.3957 16.4573 25.5077 16.518C25.6197 16.574 25.7504 16.602 25.8997 16.602C26.0257 16.602 26.1354 16.5833 26.2287 16.546C26.3267 16.504 26.4037 16.4457 26.4597 16.371C26.5157 16.2917 26.5437 16.1937 26.5437 16.077C26.5437 15.9557 26.5111 15.853 26.4457 15.769C26.3804 15.6803 26.2917 15.6057 26.1797 15.545C26.0677 15.4797 25.9371 15.4213 25.7877 15.37C25.6431 15.314 25.4867 15.2603 25.3187 15.209C24.9314 15.083 24.6327 14.9127 24.4227 14.698C24.2174 14.4833 24.1147 14.1963 24.1147 13.837C24.1147 13.5383 24.1871 13.284 24.3317 13.074C24.4811 12.8593 24.6841 12.696 24.9407 12.584C25.1974 12.472 25.4891 12.416 25.8157 12.416C26.1517 12.416 26.4481 12.4743 26.7047 12.591C26.9614 12.703 27.1644 12.8687 27.3137 13.088C27.4631 13.3027 27.5424 13.5593 27.5517 13.858H26.4247C26.4201 13.7553 26.3897 13.662 26.3337 13.578C26.2824 13.494 26.2101 13.4263 26.1167 13.375C26.0281 13.3237 25.9231 13.298 25.8017 13.298C25.6944 13.2933 25.5964 13.3097 25.5077 13.347C25.4237 13.3797 25.3537 13.4333 25.2977 13.508C25.2464 13.578 25.2207 13.6667 25.2207 13.774C25.2207 13.8767 25.2464 13.9677 25.2977 14.047C25.3537 14.1217 25.4284 14.187 25.5217 14.243C25.6197 14.2943 25.7317 14.3433 25.8577 14.39C25.9884 14.4367 26.1307 14.4833 26.2847 14.53C26.5321 14.614 26.7584 14.7143 26.9637 14.831C27.1737 14.943 27.3417 15.0923 27.4677 15.279C27.5984 15.461 27.6637 15.7037 27.6637 16.007C27.6637 16.273 27.5937 16.518 27.4537 16.742C27.3184 16.966 27.1201 17.1457 26.8587 17.281C26.6021 17.4163 26.2824 17.484 25.8997 17.484Z" fill="white"/>
<path d="M18.9892 17.4V12.5H20.0392L22.1882 15.72V12.5H23.2382V17.4H22.1882L20.0392 14.194V17.4H18.9892Z" fill="white"/>
<path d="M17 17.4V12.5H18.05V17.4H17Z" fill="white"/>
<path d="M43.9877 10.4V8.72L42.3147 5.5H43.5047L44.6177 7.852H44.4217L45.5277 5.5H46.7037L45.0377 8.72V10.4H43.9877Z" fill="white"/>
<path d="M39.4184 10.4V5.5H40.4684V9.588H42.5824V10.4H39.4184Z" fill="white"/>
<path d="M34.7016 10.4V5.5H35.7516V7.355L37.4456 5.5H38.7336L36.9346 7.439L38.7966 10.4H37.5086L36.1856 8.251L35.7516 8.72V10.4H34.7016Z" fill="white"/>
<path d="M30.5864 10.4V5.5H33.8694V6.347H31.6364V7.502H33.6594V8.314H31.6364V9.553H33.8694V10.4H30.5864Z" fill="white"/>
<path d="M26.4712 10.4V5.5H29.7542V6.347H27.5212V7.502H29.5442V8.314H27.5212V9.553H29.7542V10.4H26.4712Z" fill="white"/>
<path d="M20.2188 10.4L18.9518 5.5H20.0718L20.8628 9.224L21.8148 5.5H22.9768L23.8938 9.217L24.6918 5.5H25.8258L24.5168 10.4H23.2568L22.3818 6.977L21.4788 10.4H20.2188Z" fill="white"/>
<path d="M37.9765 56.838L65.117 75.8012L67.6253 35.2661L37.9765 56.838Z" fill="url(#paint5_linear_180_85001)"/>
<path d="M27.04 56.838L-0.100462 75.8012L-2.60882 35.2661L27.04 56.838Z" fill="url(#paint6_linear_180_85001)"/>
<path d="M65.0166 75.7507H-0.200775L29.3629 53.8516C31.1133 52.5551 33.5045 52.5516 35.2586 53.843L65.0166 75.7507Z" fill="url(#paint7_linear_180_85001)"/>
</g>
<defs>
<linearGradient id="paint0_linear_180_85001" x1="32.6588" y1="28.5934" x2="32.6087" y2="42.2389" gradientUnits="userSpaceOnUse">
<stop stop-color="#4B7EFE"/>
<stop offset="1" stop-color="#B0C6FF"/>
</linearGradient>
<linearGradient id="paint1_linear_180_85001" x1="8.12692" y1="0.550293" x2="57.0414" y2="61.6174" gradientUnits="userSpaceOnUse">
<stop stop-color="#6C93E8"/>
<stop offset="1" stop-color="#336AE0"/>
</linearGradient>
<linearGradient id="paint2_linear_180_85001" x1="12.178" y1="21.2095" x2="53.0919" y2="32.1469" gradientUnits="userSpaceOnUse">
<stop stop-color="white"/>
<stop offset="1" stop-color="#8BB1FF"/>
</linearGradient>
<linearGradient id="paint3_linear_180_85001" x1="12.178" y1="34.375" x2="53.0919" y2="45.3124" gradientUnits="userSpaceOnUse">
<stop stop-color="white"/>
<stop offset="1" stop-color="#8BB1FF"/>
</linearGradient>
<linearGradient id="paint4_linear_180_85001" x1="12.178" y1="47.5405" x2="53.0919" y2="58.4779" gradientUnits="userSpaceOnUse">
<stop stop-color="white"/>
<stop offset="1" stop-color="#8BB1FF"/>
</linearGradient>
<linearGradient id="paint5_linear_180_85001" x1="52.8009" y1="35.2661" x2="52.8009" y2="75.8012" gradientUnits="userSpaceOnUse">
<stop stop-color="#DBE5FF"/>
<stop offset="1" stop-color="#094BD7"/>
</linearGradient>
<linearGradient id="paint6_linear_180_85001" x1="12.2156" y1="35.2661" x2="12.2156" y2="75.8012" gradientUnits="userSpaceOnUse">
<stop stop-color="#C1D3FF"/>
<stop offset="1" stop-color="#094BD7"/>
</linearGradient>
<linearGradient id="paint7_linear_180_85001" x1="16.8561" y1="62.4564" x2="65.0166" y2="75.8008" gradientUnits="userSpaceOnUse">
<stop stop-color="#81A4FF"/>
<stop offset="1" stop-color="#1E5FE1"/>
</linearGradient>
</defs>
</svg>
